<?xml version="1.0" encoding="UTF-8"?>
<svg width="533px" height="409px" viewBox="0 0 533 409" version="1.1" xmlns="http://www.w3.org/2000/svg" xmlns:xlink="http://www.w3.org/1999/xlink">
    <!-- Generator: Sketch 57.1 (83088) - https://sketch.com -->
    <title>login_illustrate</title>
    <desc>Created with Sketch.</desc>
    <defs>
        <rect id="path-1" x="0" y="0" width="136" height="183" rx="10"></rect>
        <path d="M10.4373663,11.3657209 C9.19398661,15.4313286 18.3784003,21.1568153 27.3839079,22.4347779 C36.1045868,23.6723207 39.2211784,26.4058425 39.19802,28.053486 C39.1413303,32.0867877 39.2272914,32.2608184 40.9358626,37.3676696 C42.6444338,42.4745207 47.0065475,49.8369743 48.8400202,54.8088288 C48.9436083,55.0897302 47.0888638,56.3824275 47.2734757,56.5486528 C50.0203575,59.0219563 53.5353773,62.9738608 54.7803159,61.5912163 C56.9330929,61.5914383 52.6989003,60.3085012 51.5810094,57.2886768 C50.4631186,54.2688523 47.5847016,45.2791538 46.0222566,38.0534137 C44.4598116,30.8276735 46.3051513,22.5117386 43.1600097,19.6798404 C41.6550706,18.3247872 28.5147763,10.6207366 24.650615,8.93892923 C24.5051113,8.87560134 23.5327809,10.6480852 21.7336237,14.2563807 C15.5921417,7.78635151 11.8267226,6.82279822 10.4373663,11.3657209 Z" id="path-3"></path>
        <path d="M39.120855,12.6900753 C37.4759349,9.86119742 30.7169457,10.5835889 18.8438875,14.8572496 C7.76999864,17.8494928 2.1705663,19.7161445 2.04559047,20.4572046 C1.89214622,21.367072 2.01132944,25.447413 4.25453497,28.4270436 C7.37013261,32.5654652 22.165698,24.5460678 22.9940824,24.1473632 C27.0132106,22.2129411 39.7059817,15.9279189 38.577383,16.4692919 C30.8867049,20.1584026 41.103265,16.0993569 39.120855,12.6900753 Z" id="path-5"></path>
        <rect id="path-7" x="51" y="22" width="89" height="81" rx="4"></rect>
        <filter x="-15.7%" y="-14.8%" width="131.5%" height="134.6%" filterUnits="objectBoundingBox" id="filter-8">
            <feMorphology radius="4" operator="dilate" in="SourceAlpha" result="shadowSpreadOuter1"></feMorphology>
            <feOffset dx="0" dy="2" in="shadowSpreadOuter1" result="shadowOffsetOuter1"></feOffset>
            <feGaussianBlur stdDeviation="3" in="shadowOffsetOuter1" result="shadowBlurOuter1"></feGaussianBlur>
            <feComposite in="shadowBlurOuter1" in2="SourceAlpha" operator="out" result="shadowBlurOuter1"></feComposite>
            <feColorMatrix values="0 0 0 0 0.665224848   0 0 0 0 0.792210418   0 0 0 0 1  0 0 0 0.5 0" type="matrix" in="shadowBlurOuter1"></feColorMatrix>
        </filter>
        <filter x="-13.4%" y="-12.3%" width="126.8%" height="124.7%" filterUnits="objectBoundingBox" id="filter-9">
            <feOffset dx="0" dy="2" in="SourceAlpha" result="shadowOffsetOuter1"></feOffset>
            <feGaussianBlur stdDeviation="4" in="shadowOffsetOuter1" result="shadowBlurOuter1"></feGaussianBlur>
            <feColorMatrix values="0 0 0 0 0.695731707   0 0 0 0 0.840917419   0 0 0 0 1  0 0 0 0.5 0" type="matrix" in="shadowBlurOuter1" result="shadowMatrixOuter1"></feColorMatrix>
            <feMerge>
                <feMergeNode in="shadowMatrixOuter1"></feMergeNode>
                <feMergeNode in="SourceGraphic"></feMergeNode>
            </feMerge>
        </filter>
        <path d="M10.212494,7.95585231 C11.4550305,16.7576094 12.6561716,22.7225493 13.8159175,25.8506719 C14.7200648,28.2893818 15.3925703,30.2341687 16.4037202,32.9356711 C16.9435214,34.3778651 18.1422814,35.8732042 20,37.4216883 L17.4148701,40 C15.1182129,37.6835778 13.6633271,35.9581783 13.0502129,34.8238015 C11.7406262,32.4008195 10.8689384,29.710618 10.212494,28.8763549 C7.7533362,25.7510563 3.18458901,18.619006 3.18458901,13.2218571 C3.18458901,11.4000247 -2.42650172,1.39061639 1.24747367,0.0424326782 C1.46881002,-0.0387878079 5.32221945,-0.261128328 8.15460201,2.3491173 C8.96758508,3.09834006 9.65354909,4.96725173 10.212494,7.95585231 Z" id="path-10"></path>
        <circle id="path-12" cx="208.355464" cy="376.294564" r="23"></circle>
        <filter x="-15.2%" y="-10.9%" width="130.4%" height="130.4%" filterUnits="objectBoundingBox" id="filter-13">
            <feOffset dx="0" dy="2" in="SourceAlpha" result="shadowOffsetOuter1"></feOffset>
            <feGaussianBlur stdDeviation="2" in="shadowOffsetOuter1" result="shadowBlurOuter1"></feGaussianBlur>
            <feColorMatrix values="0 0 0 0 0.22883003   0 0 0 0 0.569755915   0 0 0 0 1  0 0 0 0.166083916 0" type="matrix" in="shadowBlurOuter1"></feColorMatrix>
        </filter>
        <circle id="path-14" cx="45.3554641" cy="99.2945643" r="26"></circle>
        <filter x="-13.5%" y="-9.6%" width="126.9%" height="126.9%" filterUnits="objectBoundingBox" id="filter-15">
            <feOffset dx="0" dy="2" in="SourceAlpha" result="shadowOffsetOuter1"></feOffset>
            <feGaussianBlur stdDeviation="2" in="shadowOffsetOuter1" result="shadowBlurOuter1"></feGaussianBlur>
            <feColorMatrix values="0 0 0 0 0.22883003   0 0 0 0 0.569755915   0 0 0 0 1  0 0 0 0.166083916 0" type="matrix" in="shadowBlurOuter1"></feColorMatrix>
        </filter>
        <circle id="path-16" cx="463.855464" cy="32.7945643" r="19.5"></circle>
        <filter x="-17.9%" y="-12.8%" width="135.9%" height="135.9%" filterUnits="objectBoundingBox" id="filter-17">
            <feOffset dx="0" dy="2" in="SourceAlpha" result="shadowOffsetOuter1"></feOffset>
            <feGaussianBlur stdDeviation="2" in="shadowOffsetOuter1" result="shadowBlurOuter1"></feGaussianBlur>
            <feColorMatrix values="0 0 0 0 0.22883003   0 0 0 0 0.569755915   0 0 0 0 1  0 0 0 0.166083916 0" type="matrix" in="shadowBlurOuter1"></feColorMatrix>
        </filter>
        <circle id="path-18" cx="429.855464" cy="298.794564" r="19.5"></circle>
        <filter x="-17.9%" y="-12.8%" width="135.9%" height="135.9%" filterUnits="objectBoundingBox" id="filter-19">
            <feOffset dx="0" dy="2" in="SourceAlpha" result="shadowOffsetOuter1"></feOffset>
            <feGaussianBlur stdDeviation="2" in="shadowOffsetOuter1" result="shadowBlurOuter1"></feGaussianBlur>
            <feColorMatrix values="0 0 0 0 0.22883003   0 0 0 0 0.569755915   0 0 0 0 1  0 0 0 0.166083916 0" type="matrix" in="shadowBlurOuter1"></feColorMatrix>
        </filter>
    </defs>
    <g id="登录注册页" stroke="none" stroke-width="1" fill="none" fill-rule="evenodd">
        <g id="登录" transform="translate(-173.000000, -147.000000)">
            <g id="login_illustrate" transform="translate(173.000000, 139.000000)">
                <g id="编组-19" transform="translate(0.644536, 9.705436)">
                    <rect id="矩形备份-7" fill="#FFFFFF" x="280.355464" y="105.294564" width="156" height="234" rx="12"></rect>
                    <rect id="矩形备份-5" fill="#FFFFFF" x="83.3554641" y="149.294564" width="197" height="208" rx="4"></rect>
                    <path d="M431.485298,300 C427.786371,255.204953 441.745251,226.230439 473.361936,213.076458 C520.786964,193.345485 573.692271,118.926596 473.361936,33.7525172 C373.0316,-51.4215614 271.99069,49.925528 222.459481,62.6599283 C127.803841,86.995753 65.6381537,33.0993562 41.8181371,112.294564 C37.1672925,127.757383 72.3252177,121.345053 92.7361986,138.88195 C125.590203,167.10976 238.506569,220.815776 431.485298,300 Z" id="路径-62" stroke="#AACFFE" stroke-width="2" stroke-dasharray="3"></path>
                    <path d="M44.6073809,112.416512 C-8.55564418,184.377565 -13.2379389,248.003583 30.5604969,303.294564 C72.5320002,356.279233 144.219691,349.603599 219.83024,367.4217 C295.440789,385.2398 313.779395,419.903369 378.287422,388.835134 C431.262752,363.321255 416.108202,305.36068 433.318511,288.602038 C445.824929,276.423839 309.882724,265.535711 196.567208,231.794564 C165.586961,222.569799 114.933685,182.777114 44.6073809,112.416512 Z" id="路径-61" stroke="#AACFFE" stroke-width="2" stroke-dasharray="3"></path>
                    <rect id="矩形备份-39" fill="#FED095" x="130.355464" y="140.294564" width="101" height="129" rx="4"></rect>
                    <rect id="矩形备份-38" fill="#FF8232" x="205.355464" y="151.294564" width="101" height="129" rx="4"></rect>
                    <rect id="矩形备份-7" fill="#FFFFFF" x="295.355464" y="158.294564" width="132" height="140" rx="12"></rect>
                    <g id="编组-15" transform="translate(238.355464, 57.294564)">
                        <rect id="矩形备份-4" fill="#AACFFE" x="21" y="22" width="106" height="101" rx="4"></rect>
                        <rect id="矩形" fill="#2D66C9" x="3" y="37" width="112" height="101" rx="4"></rect>
                        <g id="编组-17" transform="translate(20.000000, 51.000000)" fill="#5E94E7" opacity="0.6">
                            <rect id="矩形备份" x="0" y="0" width="16" height="15"></rect>
                            <rect id="矩形备份-18" x="0" y="26" width="16" height="15"></rect>
                            <rect id="矩形备份-24" x="0" y="51" width="16" height="15"></rect>
                            <rect id="矩形备份-3" x="25" y="0" width="18" height="15"></rect>
                            <rect id="矩形备份-20" x="25" y="26" width="18" height="15"></rect>
                            <rect id="矩形备份-26" x="25" y="51" width="18" height="15"></rect>
                            <rect id="矩形备份-14" x="52" y="0" width="16" height="15"></rect>
                            <rect id="矩形备份-22" x="52" y="26" width="16" height="15"></rect>
                            <rect id="矩形备份-28" x="52" y="51" width="16" height="15"></rect>
                        </g>
                    </g>
                    <rect id="矩形备份-36" fill="#2D66C9" x="113.355464" y="188.294564" width="110" height="140" rx="8"></rect>
                    <rect id="矩形备份-37" fill="#2D66C9" x="323.355464" y="199.294564" width="77" height="88" rx="4"></rect>
                    <g id="3" transform="translate(338.355464, 39.294564)">
                        <rect id="蒙版" stroke="#F8FBFF" stroke-width="5" fill="#AACFFE" x="2.5" y="-2.5" width="141" height="188" rx="10"></rect>
                        <g id="路径-79-+-路径-78-蒙版" transform="translate(5.000000, 0.000000)">
                            <mask id="mask-2" fill="white">
                                <use xlink:href="#path-1"></use>
                            </mask>
                            <use id="蒙版" fill="#D4E7FF" xlink:href="#path-1"></use>
                            <path d="M7,134 C29.1834715,129.388781 51.1834715,125.956233 73,123.702355 C105.724793,120.321538 119.730372,117.438479 131.233471,110.884947 C138.902204,106.515925 140.052514,118.324447 134.684401,146.310512 L7,172.202355 L7,134 Z" id="路径-79" fill="#2D66C9" mask="url(#mask-2)" transform="translate(72.500000, 141.101177) scale(-1, 1) translate(-72.500000, -141.101177) "></path>
                            <path d="M-4.09022348,169.217108 C14.1380119,151.475794 31.8046785,142.38558 48.9097765,141.946467 C74.5674235,141.287797 118.353158,140 132.353158,87 C141.686491,51.6666667 140.292249,83.4732497 128.170431,182.419749 L-6.09022348,184.946467 L-4.09022348,169.217108 Z" id="路径-78" fill="#AACFFE" mask="url(#mask-2)" transform="translate(66.176579, 129.000233) scale(-1, 1) translate(-66.176579, -129.000233) "></path>
                        </g>
                        <path d="M57.773179,72.5925764 L110.773179,65.6453828 C106.149246,65.4591416 103.140735,64.4356074 101.747647,62.5747803 C99.6580159,59.7835396 88.863782,62.5747803 88.863782,62.5747803 C88.863782,62.5747803 82.0356566,54.4483232 77.2684229,57.1385181 C72.5011891,59.828713 73.1610097,64.5925764 70.9959359,64.5925764 C68.8308621,64.5925764 66.4295287,63.3700699 63.7917966,67.9813231 C62.0333086,71.055492 60.0271027,72.5925764 57.773179,72.5925764 Z" id="路径-80备份" fill="#F3F5FA" transform="translate(84.273179, 64.592576) rotate(10.000000) translate(-84.273179, -64.592576) "></path>
                        <ellipse id="椭圆形备份-6" fill="#2D66C9" cx="73" cy="163.5" rx="42" ry="4.5"></ellipse>
                        <g id="编组-14" transform="translate(0.000000, 25.000000)">
                            <path d="M43,116 C47.285451,103.244954 49.4281765,93.7906396 49.4281765,87.6370562 C49.4281765,81.4834727 49.0858388,70.2711206 48.4011635,54 L51.378931,54 C53.1263103,72.6589029 54,84.7292369 54,90.2110021 C54,95.6927674 53.1263103,104.2891 51.378931,116 L43,116 Z" id="路径-76" fill="#8EBCF6"></path>
                            <path d="M39.898301,53.4330817 C35.4187436,51.1322418 32.3626619,49.9818218 30.7300557,49.9818218 C29.0974495,49.9818218 27.2104302,50.4332388 25.0689978,51.3360727 C28.113654,51.1776235 30.0818614,51.1776235 30.9736198,51.3360727 C32.0384027,51.5252653 32.7980924,52.151904 33.259706,52.5678409 C34.6096247,53.784185 26.0823452,52.6374142 23.0144496,53.861161 C20.9691859,54.6769923 19.3188564,55.5679474 18.0634611,56.5340264 C21.2818885,55.601282 23.4786439,55.0785654 24.6537273,54.9658763 C27.5531115,54.6878288 29.2259668,55.4345874 30.7300557,55.8231446 C26.3525384,55.4604724 19.2202426,58.1471083 16.2885715,60.6500764 C14.334124,62.3187218 13.2379335,64.3280333 13,66.6780109 C16.1368259,62.340996 19.559666,60.1724886 23.2685202,60.1724886 C23.8569277,60.1724886 24.4570869,60.3316845 25.0689978,60.6500764 C18.6564202,62.6828982 15.4501314,67.2358669 15.4501314,74.3089827 C15.4501314,81.3820986 15.7296114,81.8620652 16.2885715,75.7488828 C17.6548822,69.3454024 19.4598642,65.537127 21.7035177,64.3240568 C24.0670317,63.0461818 21.1209181,66.3525588 21.1209181,70.207282 C21.1209181,71.9123844 21.4995639,74.3089827 21.9886417,75.4260885 C23.1335033,78.0410742 22.5631264,74.4097704 22.5286563,71.2301995 C22.5036724,68.9256518 23.8821121,66.768514 25.0689978,65.2870437 C27.8934228,61.7615976 24.5551495,66.8254086 26.8866912,71.9140215 C28.3317725,75.0679255 27.1809023,70.3694962 27.946937,67.181781 C28.6009688,64.4601453 29.3154265,61.5842032 30.7300557,60.6500764 C32.8647315,59.2404789 30.4365361,62.2672241 30.4365361,67.181781 C30.4365361,69.0382991 31.5552345,70.8660327 33.0201066,72.4142074 C34.8660752,74.3651505 32.2573856,71.1492292 32.1353473,67.181781 C32.0353929,63.9322775 33.3713278,60.2657218 35.5834374,58.5065073 C40.4963996,54.5993978 33.2652367,62.2349793 35.5834374,67.181781 C37.3660516,70.9856964 35.8707905,67.9843347 36.8493009,64 C37.4229814,61.6640667 39.2713102,58.455159 40.4963996,56.5340264 C42.5625211,53.2940232 39.9426454,58.0021249 39.2783855,62.7595693 C38.8769699,65.6345174 39.8636976,68.520139 41.1122655,69.7015615 C42.3890974,70.9097281 41.5360731,66.6428104 42.0082752,63.43583 C42.7619222,58.3174046 43.9932238,53.1128718 46.0376088,51.8258433 C49.3629157,49.7324193 43.167103,51.8291019 41.1122655,50.5740874 C40.3599422,50.1145977 38.8535215,48.9090937 37.7005383,48.4806634 C35.7043525,47.7389122 31.9385443,47.9492148 31.3764326,48.4806634 C31.0366507,48.8019102 35.2574371,49.0118539 36.8493009,49.9818218 C38.2188479,50.8163258 39.2351812,51.9667457 39.898301,53.4330817 Z" id="路径-77" fill="#2D66C9"></path>
                            <path d="M40.7240055,35.2562122 C34.3929955,32.6200384 30.0976498,31.2377144 27.8379683,31.10924 C25.5782868,30.9807656 22.9921515,31.280318 20.0795622,32.0078971 C24.2846415,32.0902233 27.0088268,32.2451071 28.2521179,32.4725485 C29.7366401,32.7441195 30.8237676,33.4258627 31.4863442,33.8750203 C33.4239488,35.1885137 21.5561552,33.3792675 17.3795077,34.3524581 C14.595076,35.0012518 12.361544,35.7556871 10.6789115,36.6157639 C15.0804623,35.9432494 18.091246,35.5973035 19.7112626,35.5779263 C23.7084686,35.5301151 26.0663365,36.4029411 28.1702401,36.9069588 C22.0907121,36.2025146 12.3717636,38.307835 8.45642954,40.5614176 C5.84620683,42.063806 4.44327106,43.9718561 4.24762223,46.285568 C8.34258389,42.2277736 12.9567673,40.3448065 18.0901726,40.6366667 C18.9045842,40.6829701 19.7443169,40.888206 20.6093705,41.2523741 C11.8493891,42.7653975 7.67056842,47.0320676 8.0729083,54.0523844 C8.47524818,61.0727011 8.88937694,61.5710781 9.31529458,55.5475152 C10.8421489,49.299354 13.1237888,45.6615456 16.1602144,44.63409 C19.3588522,43.5517456 15.4692288,46.6016033 15.6884969,50.427552 C15.7854882,52.1199263 16.4458955,54.5284313 17.1863697,55.675685 C18.9197147,58.3612429 17.9236997,54.7121613 17.6951264,51.5536126 C17.5294568,49.2643017 19.3146433,47.2317396 20.873135,45.8547276 C24.5818686,42.57786 20.2494271,47.3411728 23.765957,52.5752761 C25.9454896,55.8193545 24.0853158,51.0654326 24.9642535,47.9617943 C25.7146808,45.3119425 26.5399656,42.5136913 28.4448104,41.6978587 C31.3192216,40.4667671 28.1305397,43.2798369 28.4100943,48.1577079 C28.5156986,50.0003675 30.16805,51.9024911 32.2836363,53.554384 C34.949607,55.6360282 31.1560025,52.2388279 30.7614097,48.2913921 C30.438222,45.0582796 32.0787178,41.5242224 35.0404174,39.9522171 C41.6181741,36.460888 32.0438949,43.4704312 35.5338928,48.562732 C38.2175776,52.4785311 35.9772683,49.3819075 37.1049785,45.5043166 C37.7661318,43.230965 40.1418616,40.1914612 41.7282215,38.3810751 C44.4036282,35.3278467 41.045283,39.7946382 40.3965021,44.464297 C40.0044405,47.2861957 41.5343078,50.2279253 43.3296467,51.4987821 C45.165627,52.7984076 43.7422457,48.4962144 44.2133955,45.3503322 C44.965363,40.3294212 46.3735516,35.2606336 49.1299639,34.1440908 C53.6134231,32.3279715 45.1570976,33.9214369 42.241619,32.5140898 C41.1741953,31.9988277 39.0205938,30.683778 37.4003856,30.1678142 C34.5952825,29.2745146 29.3950101,29.1869053 28.6472248,29.6701525 C28.1952079,29.962263 34.049118,30.502785 36.3075828,31.5907807 C38.2506345,32.5268287 39.7227754,33.7486392 40.7240055,35.2562122 Z" id="路径-77备份-4" fill="#2D66C9" transform="translate(27.331455, 44.549563) rotate(47.000000) translate(-27.331455, -44.549563) "></path>
                            <path d="M75.898301,53.4330817 C71.4187436,51.1322418 68.3626619,49.9818218 66.7300557,49.9818218 C65.0974495,49.9818218 63.2104302,50.4332388 61.0689978,51.3360727 C64.113654,51.1776235 66.0818614,51.1776235 66.9736198,51.3360727 C68.0384027,51.5252653 68.7980924,52.151904 69.259706,52.5678409 C70.6096247,53.784185 62.0823452,52.6374142 59.0144496,53.861161 C56.9691859,54.6769923 55.3188564,55.5679474 54.0634611,56.5340264 C57.2818885,55.601282 59.4786439,55.0785654 60.6537273,54.9658763 C63.5531115,54.6878288 65.2259668,55.4345874 66.7300557,55.8231446 C62.3525384,55.4604724 55.2202426,58.1471083 52.2885715,60.6500764 C50.334124,62.3187218 49.2379335,64.3280333 49,66.6780109 C52.1368259,62.340996 55.559666,60.1724886 59.2685202,60.1724886 C59.8569277,60.1724886 60.4570869,60.3316845 61.0689978,60.6500764 C54.6564202,62.6828982 51.4501314,67.2358669 51.4501314,74.3089827 C51.4501314,81.3820986 51.7296114,81.8620652 52.2885715,75.7488828 C53.6548822,69.3454024 55.4598642,65.537127 57.7035177,64.3240568 C60.0670317,63.0461818 57.1209181,66.3525588 57.1209181,70.207282 C57.1209181,71.9123844 57.4995639,74.3089827 57.9886417,75.4260885 C59.1335033,78.0410742 58.5631264,74.4097704 58.5286563,71.2301995 C58.5036724,68.9256518 59.8821121,66.768514 61.0689978,65.2870437 C63.8934228,61.7615976 60.5551495,66.8254086 62.8866912,71.9140215 C64.3317725,75.0679255 63.1809023,70.3694962 63.946937,67.181781 C64.6009688,64.4601453 65.3154265,61.5842032 66.7300557,60.6500764 C68.8647315,59.2404789 66.4365361,62.2672241 66.4365361,67.181781 C66.4365361,69.0382991 67.5552345,70.8660327 69.0201066,72.4142074 C70.8660752,74.3651505 68.2573856,71.1492292 68.1353473,67.181781 C68.0353929,63.9322775 69.3713278,60.2657218 71.5834374,58.5065073 C76.4963996,54.5993978 69.2652367,62.2349793 71.5834374,67.181781 C73.3660516,70.9856964 71.8707905,67.9843347 72.8493009,64 C73.4229814,61.6640667 75.2713102,58.455159 76.4963996,56.5340264 C78.5625211,53.2940232 75.9426454,58.0021249 75.2783855,62.7595693 C74.8769699,65.6345174 75.8636976,68.520139 77.1122655,69.7015615 C78.3890974,70.9097281 77.5360731,66.6428104 78.0082752,63.43583 C78.7619222,58.3174046 79.9932238,53.1128718 82.0376088,51.8258433 C85.3629157,49.7324193 79.167103,51.8291019 77.1122655,50.5740874 C76.3599422,50.1145977 74.8535215,48.9090937 73.7005383,48.4806634 C71.7043525,47.7389122 67.9385443,47.9492148 67.3764326,48.4806634 C67.0366507,48.8019102 71.2574371,49.0118539 72.8493009,49.9818218 C74.2188479,50.8163258 75.2351812,51.9667457 75.898301,53.4330817 Z" id="路径-77备份" fill="#2D66C9" transform="translate(66.000000, 64.000000) scale(-1, 1) translate(-66.000000, -64.000000) "></path>
                            <path d="M80.9185166,30.9431013 C74.4890156,28.3717936 70.1247938,27.0264347 67.8258513,26.9070244 C65.5269087,26.7876142 62.8935825,27.0897961 59.9258727,27.8135703 C64.204806,27.881747 66.9763229,28.0257035 68.2404233,28.2454396 C69.7497921,28.5078102 70.8526739,29.1744427 71.5246822,29.6138072 C73.4898683,30.8986621 61.4216121,29.1566933 57.1662764,30.1256441 C54.3293859,30.7716113 52.052591,31.5197215 50.3358916,32.3699747 C54.8185828,31.6958057 57.8842921,31.34675 59.5330194,31.3228077 C63.6010659,31.2637326 65.9961659,32.11429 68.1346806,32.6032027 C61.9513371,31.9293666 52.0500885,34.027583 48.0542084,36.2539327 C45.3902883,37.7381658 43.9529274,39.6173738 43.7421258,41.8915567 C47.9299275,37.8917377 52.6351264,36.0274626 57.8577225,36.2987315 C58.6862843,36.3417681 59.5398107,36.5409046 60.4183018,36.8961408 C51.4959521,38.4094296 47.2217542,42.614756 47.5957081,49.5121199 C47.9696621,56.4094838 48.3885856,56.8979658 48.8524787,50.9775658 C50.4378887,44.8331314 52.7782184,41.2515016 55.8734679,40.2326763 C59.1340721,39.1594233 55.1603311,42.1681625 55.3641294,45.9271041 C55.4542778,47.5898383 56.1141726,49.9545807 56.8619251,51.0797003 C58.6123074,53.7134454 57.617149,50.1306539 57.4005071,47.0275674 C57.2434853,44.7784556 59.0704777,42.7757383 60.6634572,41.4178893 C64.4542612,38.1866239 60.0212184,42.8804457 63.5733958,48.0131485 C65.7750226,51.1943792 63.9060283,46.5285202 64.8161807,43.4760414 C65.5932587,40.869869 66.4472666,38.117644 68.3898794,37.3101955 C71.3212825,36.0917556 68.0620602,38.8656923 68.3218916,43.6581328 C68.4200453,45.4685204 70.0919642,47.3326613 72.2365648,48.9495092 C74.939098,50.9869912 71.0956656,47.6601769 70.7140602,43.7823854 C70.4015097,40.6063144 72.0888469,37.1285763 75.1108036,35.5748702 C81.8223877,32.1241824 72.0435696,39.0411423 75.5694633,44.0345817 C78.2807507,47.8743598 76.0165283,44.8382109 77.1837598,41.0244476 C77.8680836,38.7885168 80.3011402,35.794532 81.9246711,34.0107396 C84.6627669,31.0023616 81.2225241,35.4018569 80.5386764,39.9925044 C80.1254237,42.7666562 81.6674393,45.6527464 83.4880625,46.8961344 C85.3498996,48.1676692 83.9231288,43.9443844 84.4185044,40.851628 C85.209137,35.9155069 86.6678229,30.9303543 89.478564,29.8248338 C94.0503918,28.0266428 85.4366544,29.6180601 82.4767975,28.2439374 C81.3931258,27.7408395 79.2081358,26.4551088 77.5619198,25.9529938 C74.7117891,25.0836708 69.4201122,25.0133133 68.6566763,25.4904431 C68.1951991,25.7788558 74.1497685,26.2922948 76.442622,27.3545914 C78.4152596,28.2685296 79.9072245,29.4646995 80.9185166,30.9431013 Z" id="路径-77备份-2" fill="#2D66C9" transform="translate(67.266222, 40.138101) scale(-1, 1) rotate(56.000000) translate(-67.266222, -40.138101) "></path>
                            <path d="M62.5832554,17.8426635 C56.4409891,16.3049114 52.2311189,15.5990223 49.9536447,15.7249961 C47.6761705,15.8509698 45.0228605,16.3660911 41.9937148,17.2703598 C46.2483359,16.9057287 48.9939714,16.7538596 50.2306213,16.8147524 C51.7072135,16.8874599 52.7379195,17.3417894 53.3625811,17.6466445 C55.189309,18.5381468 43.346987,18.2574086 39.0105516,19.4958541 C36.1195946,20.3214845 33.7760848,21.1781355 31.9800221,22.0658071 C36.5129552,21.0539524 39.6016509,20.4565677 41.2461092,20.273653 C45.3036224,19.8223317 47.6026182,20.3045269 49.6827951,20.5065311 C43.5930055,20.5474326 33.5189292,23.2969699 29.3132112,25.5720372 C26.5093992,27.0887486 24.8870537,28.8180952 24.4461746,30.760077 C29.0231229,26.9678831 33.8985099,24.9286964 39.0723356,24.6425169 C39.89316,24.5971147 40.7229963,24.6811188 41.5618445,24.8945293 C32.522086,27.0533393 27.8382242,31.0276666 27.510259,36.8175112 C27.1822939,42.6073558 27.5499116,42.9786774 28.6131121,37.931476 C30.8160216,32.5843492 33.5105404,29.3277325 36.6966687,28.1616259 C40.0530065,26.9332236 35.7898892,29.8670521 35.611154,33.0224151 C35.532092,34.4181618 35.9491752,36.35073 36.5796375,37.2274221 C38.0554602,39.2796337 37.428164,36.3511661 37.5275084,33.7511226 C37.599513,31.8666155 39.6224485,29.9944838 41.3468383,28.6902144 C45.4503588,25.586452 40.5586928,29.9891237 43.5752293,33.9746082 C45.4448678,36.4447972 44.057268,32.6876035 45.2736885,30.0191255 C46.3122548,27.7408087 47.4422694,25.3315187 49.4589807,24.4577156 C52.5021985,23.1391464 48.9745393,25.8041134 48.7466619,29.8270251 C48.6605792,31.3467163 50.1364075,32.7565252 52.1081083,33.9107843 C54.5927606,35.3653318 51.1027721,32.9341628 51.1164916,29.6959429 C51.1277284,27.0437075 53.1613586,23.9392906 56.328807,22.3285604 C63.3635192,18.7512256 52.922052,25.5594529 55.9265532,29.4298843 C58.2369083,32.406109 56.2901961,30.0646587 57.8399563,26.7276965 C58.7485488,24.7713043 61.4757447,22.0019676 63.2738146,20.3348556 C66.3062717,17.52326 62.4332588,21.5793263 61.2860285,25.5248854 C60.5927513,27.909207 61.8354295,30.195155 63.5223929,31.0658918 C65.2475444,31.9563396 64.2554293,28.5293866 65.0628487,25.8678111 C66.3515114,21.6198663 68.3104914,17.2645802 71.222071,16.0533093 C75.9579184,14.0831095 67.2175844,16.2774683 64.4092927,15.408704 C63.3811125,15.0906294 61.3355628,14.2200764 59.7470247,13.9583414 C56.9967528,13.5051937 51.7337254,13.9679154 50.9249415,14.4463167 C50.4360525,14.7354979 56.3142854,14.5816709 58.489949,15.252828 C60.3617633,15.8302526 61.7261987,16.6935311 62.5832554,17.8426635 Z" id="路径-77备份-3" fill="#2D66C9" transform="translate(48.524520, 27.615343) scale(-1, 1) rotate(129.000000) translate(-48.524520, -27.615343) "></path>
                            <ellipse id="椭圆形备份-3" fill="#FFFFFF" cx="51.2666667" cy="52.5" rx="2.84444444" ry="2.5"></ellipse>
                            <ellipse id="椭圆形" fill="#E1E1E1" cx="48.4888889" cy="54" rx="2.48888889" ry="3"></ellipse>
                            <ellipse id="椭圆形备份-5" fill="#FFFFFF" cx="47.4888889" cy="54" rx="2.48888889" ry="3"></ellipse>
                        </g>
                        <g id="编组-13" transform="translate(25.000000, 93.000000)">
                            <polygon id="路径-75" fill="#A9A9A9" points="2 13 18.1013007 12.1932974 55.826363 52 35.552645 52"></polygon>
                            <g id="编组-8" transform="translate(2.000000, 13.000000)">
                                <path d="M27.1357369,-2.53049218 C27.0363409,-3.82555644 28.6914936,-3.22703685 32.1011952,-0.734933432 C34.0183772,0.666308282 35.0308265,4.68586759 31.7350869,11.1163777 C30.6762469,13.1823423 30.6099563,18.172848 30.5734628,20.1885411 C30.563491,20.7393308 29.3657115,24.2975893 29.2701524,25.9317728 C29.145792,28.0584954 30.3032333,27.9857341 28.3377836,27.747586 C26.5520879,27.5312183 27.9775514,20.7727686 27.8163866,18.9279333 C26.8331014,7.6723778 31.6273026,3.88853464 31.5599643,3.73370186 C30.3571297,0.967991053 29.5789927,-0.610443325 29.2255534,-1.00160127 L27.1357369,-2.53049218 Z" id="路径-31" fill="#F9C4B6" transform="translate(30.505958, 12.334747) rotate(-67.000000) translate(-30.505958, -12.334747) "></path>
                                <g id="路径-2备份" transform="translate(29.000000, 9.000000)">
                                    <mask id="mask-4" fill="white">
                                        <use xlink:href="#path-3"></use>
                                    </mask>
                                    <use id="蒙版" fill="#FFCDBF" transform="translate(32.852734, 35.215888) rotate(-29.000000) translate(-32.852734, -35.215888) " xlink:href="#path-3"></use>
                                    <path d="M20.9320727,13.5684553 C18.5220173,15.894137 17.0799851,17.9708915 16.605976,19.7987187 C15.9046542,22.5030869 13.0801144,25.9490119 14.5129756,28.9268282 C17.2376112,26.1884708 23.8953062,20.9737034 24.1120773,15.7304587 C24.1497391,14.8194985 23.0897375,14.0988307 20.9320727,13.5684553 Z" fill="#FFB8A4" mask="url(#mask-4)"></path>
                                </g>
                                <path d="M30.4411469,32.0269843 C32.4581758,34.8454631 29.2232368,36.686219 20.73633,37.549252 C19.3774124,32.6351477 18.8969763,28.4357245 19.2950218,24.9509823 C21.008896,9.94664211 19.8441317,-0.0886274441 23.1452261,-0.0886274441 C26.326621,-0.0886274441 32.3545096,5.1077518 33.057989,7.80586561 C34.1111357,11.8450879 27.4156036,27.7992661 30.4411469,32.0269843 Z" id="路径-32" fill="#FDD1C5" transform="translate(26.165663, 18.730312) rotate(-42.000000) translate(-26.165663, -18.730312) "></path>
                                <path d="M30,24 C32.0578593,25.8227136 35.2488377,26.4371176 39.5729351,25.8432118 C46.0590812,24.9523532 44.9047328,39.1056957 37.9628369,39.817516 C33.3349062,40.2920629 30.6806273,35.0195576 30,24 Z" id="路径-69" fill="#FF8232" transform="translate(36.928253, 31.923452) rotate(-42.000000) translate(-36.928253, -31.923452) "></path>
                                <g id="路径-2" transform="translate(25.000000, 3.000000)">
                                    <mask id="mask-6" fill="white">
                                        <use xlink:href="#path-5"></use>
                                    </mask>
                                    <use id="蒙版" fill="#FFDED5" transform="translate(20.690846, 20.304896) rotate(-42.000000) translate(-20.690846, -20.304896) " xlink:href="#path-5"></use>
                                    <path d="M29.5686405,2 C27.8981947,4.32568176 26.8987003,6.40243624 26.5701574,8.23026343 C26.0840607,10.9346317 25.5770197,15.3490958 26.5701574,18.3269121 C28.9508014,14.8749123 29.9502957,9.43260822 29.5686405,2 Z" fill="#FFB8A4" mask="url(#mask-6)"></path>
                                </g>
                                <path d="M44.176579,41.7388286 L41,48.4207005 L45.5,48.4207005 C54.6137701,43.7435342 59.4830441,41.2650633 60.1078218,40.9852878 C60.7325996,40.7055122 58.63878,40.9566925 53.826363,41.7388286 L45.5,45.6613493 L46.5,42.447631 L44.176579,41.7388286 Z" id="路径-64备份" fill="#757575"></path>
                                <polygon id="路径-67" fill="#757575" points="58 40.9799221 73.971459 59 77 59 61 39"></polygon>
                                <path d="M0,-1.0658141e-14 C12.1191799,23.2404368 22.2887325,36.3656059 30.5086579,39.3755071 C42.8385461,43.890359 62.8157415,44.3636697 66,36 C66,36 65.998238,37.297051 61,37.297051 C56.001762,37.297051 58.020442,38.700429 49.5482651,37.297051 C43.9001471,36.3614657 39.0691565,36.3614657 35.0552934,37.297051 L0,-1.0658141e-14 Z" id="路径-68" fill="#504E4E"></path>
                                <polygon id="路径-64" fill="#757575" points="15.8565611 24 12 56 39 42.447631 37.4473926 40.3455175 15.8565611 50.4979463 18.1254871 25.7556783"></polygon>
                                <polygon id="路径-65" fill="#757575" points="14 53 44 48.9098702 42.6742493 47 19.2935127 49.7146072"></polygon>
                                <polygon id="路径-66" fill="#757575" points="49.6109209 53 68 51.464552 66.9780315 50 48 51.464552"></polygon>
                            </g>
                            <polygon id="路径-63" fill="#757575" points="0 12.4252258 55.7973701 75 60 75 2.56089674 11"></polygon>
                            <polygon id="路径-72" fill="#FFFFFF" points="31 31 36 31 34.0521192 33.1194786 34.0521192 36 33.0228864 36 33.0228864 33.1194786"></polygon>
                            <rect id="矩形" fill="#FFFFFF" x="32" y="36" width="3" height="1"></rect>
                            <polygon id="三角形" fill="#9BC7FF" transform="translate(33.500000, 32.381366) rotate(-180.000000) translate(-33.500000, -32.381366) " points="33.5 31.7627312 35 33 32 33"></polygon>
                            <path d="M13.952244,14.238907 C17.0740881,17.3293787 19.2988957,19.0447027 20.6266669,19.3848788 C21.9544381,19.7250549 23.0473001,19.068474 23.9052528,17.4151361 C22.001522,16.6905134 20.4175209,15.6059589 19.1532495,14.1614725 C17.8889781,12.7169862 16.1553096,12.7427977 13.952244,14.238907 Z" id="路径-29" fill="#FDD1C5" transform="translate(18.928748, 16.284539) rotate(35.000000) translate(-18.928748, -16.284539) "></path>
                            <path d="M18.7367017,4.07425825 C20.8374063,4.94567132 22.0842457,5.8409256 22.4772197,6.76002109 C22.8701937,7.67911658 23.5825166,7.83640216 24.6141883,7.23187782 C26.3488895,10.4777509 26.6791606,12.5841904 25.6050013,13.5511964 C23.9937625,15.0017055 21.1597206,15.1149558 17.6629184,12.5881607 C13.9418425,8.45621882 14.2997703,5.61825136 18.7367017,4.07425825 Z" id="路径-26" fill="#FFDED5" transform="translate(20.669085, 9.326326) rotate(35.000000) translate(-20.669085, -9.326326) "></path>
                            <path d="M23.9008103,6.9629788 C23.3741622,2.32567818 21.7607776,0.287188047 19.0606568,0.847508398 C16.3605359,1.40782875 15.3735899,2.43306416 16.0998188,3.92321463 C14.0598741,3.36830693 12.5400611,3.92071198 11.5403799,5.58042977 C10.0408581,8.07000645 9.52039309,15.0126261 16.7109561,15.0132594 C18.279956,12.7022178 16.2359769,12.996402 17.2578227,11.2163119 C18.2796685,9.43622183 22.2492562,9.54603624 21.124973,6.96273432 C21.9392573,5.24067077 22.8645365,5.24075226 23.9008103,6.9629788 Z" id="路径-27" fill="#464646" transform="translate(17.257552, 7.885081) rotate(-7.000000) translate(-17.257552, -7.885081) "></path>
                            <path d="M15.2826171,19 C18.427539,20.8150968 20,22.5341771 20,24.157241 C20,26.5918368 19.3237729,23.0652049 18.3281957,22.1872695 C17.3326184,21.309334 16.1759676,19.3014148 14.6362885,19.3014148 C13.6098358,19.3014148 13.8252787,19.2009432 15.2826171,19 Z" id="路径-70" fill="#FF9329"></path>
                            <path d="M16,25.5823596 C18.7484342,24.4759985 20.7025851,24.0006728 21.8624527,24.1563823 C23.0223203,24.3120918 24.288054,25.1225394 25.6596536,26.5877249 C25.1592297,25.6253032 25.3378189,24.3546756 26.1954212,22.7758421 C27.1969424,20.9320562 30.3967119,22.7758421 31.4385496,24.1563823 C32.4803873,25.5369225 31.825269,27.1864612 31.4385496,28.3948354 C30.6716895,30.7910278 23.9154783,33.7448989 21.385187,32.8293247 C19.6983262,32.2189419 17.9032638,29.8032869 16,25.5823596 Z" id="路径-71" fill="#FF8232"></path>
                            <path d="M22.7647135,18 C25.5882378,20.3046936 27,22.0779093 27,23.3196472 C27,24.5613852 26.7055367,24.1033654 26.1166102,21.9455881 C23.9096966,19.315196 22.3558453,18 21.4550563,18 C20.5542673,18 20.9908197,18 22.7647135,18 Z" id="路径-70备份" fill="#FF9329"></path>
                            <path d="M18.1142728,19.7088806 C13.3758674,31.4274514 7.83018003,35.4393162 14.2343378,38.4154665 C18.5037764,40.3995667 22.3456444,41.8711549 25.759942,42.8302312 C27.5359387,43.8787616 28.6155216,44.3770468 28.9986908,44.3250869 C29.5764638,44.2467375 29.8528452,43.364611 29.9821427,43.1676301 C30.247993,42.7626148 28.2729203,42.0322028 27.8523793,41.2531969 C27.6272618,40.8361914 28.8431496,40.1458774 28.8633295,40.0633764 C28.9760675,39.6024732 28.4397983,39.8089317 27.2545217,40.6827517 C26.6869001,40.9993772 26.1532931,41.0608851 25.6537006,40.8672755 C19.0454548,38.3063492 15.377151,35.0630144 15.4582143,34.900739 C20.84126,24.1247744 23.7073746,20.9173089 23.7072167,19.3860031 C23.7070868,18.1255995 19.797778,15.5453968 18.1142728,19.7088806 Z" id="路径-30" fill="#FFB4A0" transform="translate(20.672797, 30.880817) rotate(-42.000000) translate(-20.672797, -30.880817) "></path>
                            <path d="M23.9301283,12.0649113 C22.4078252,10.2017433 20.3844258,9.7992547 17.8599302,10.8574454 C14.0731867,12.4447314 16.1315245,14.1698163 12.7145164,15.3694916 C9.29750838,16.5691669 7.65464012,16.5180226 6.28284962,20.9366628 C4.91105912,25.3553029 1.91274737,28.1426871 9.74172707,29.9237744 C17.5707068,31.7048617 11.8687286,25.452201 15.4878778,24.8229501 C19.1070271,24.1936993 18.6234152,22.6421737 20.2810208,20.9376964 C21.9386263,19.2332191 23.6049482,15.1868279 23.6048465,13.8083839 C23.6047787,12.8894211 23.713206,12.3082636 23.9301283,12.0649113 Z" id="路径-73" fill="#464646" transform="translate(14.244971, 20.262144) rotate(-54.000000) translate(-14.244971, -20.262144) "></path>
                            <path d="M18.5404011,10.1128197 C17.4841982,9.7969387 17.0258097,10.144378 17.1652355,11.1551377 C17.3046613,12.1658974 17.9162495,12.3217783 19,11.6227806 L18.5404011,10.1128197 Z" id="路径-74" fill="#FDD1C5" transform="translate(18.070424, 11.025718) rotate(17.000000) translate(-18.070424, -11.025718) "></path>
                            <path d="M55.9939218,47.7015454 C60.6732562,40.3586702 63.3431696,36.146579 64.0036619,35.0652719 C68.0534995,28.4351905 72.7276967,22.8886593 70.7452867,19.4793776 C68.2779066,15.2360609 64.6449315,21.3472879 63.5527146,22.5603177 C60.279264,26.1958529 60.6243387,30.8361594 58.6532499,37.122515 C57.3391906,41.3134187 56.2173973,44.2411817 55.2878699,45.9058039 L53.468287,46.7659912 C52.8436342,49.3350232 52.8439045,51.9555159 53.4690977,54.6274692 C54.0942909,57.2994226 54.9358989,54.9907813 55.9939218,47.7015454 Z" id="路径-36" fill="#FFDED5" transform="translate(62.107822, 36.851271) rotate(-42.000000) translate(-62.107822, -36.851271) "></path>
                        </g>
                        <path d="M99,98 L132,93.658004 C129.120947,93.5416032 127.247724,92.9018944 126.380329,91.7388774 C125.079238,89.994352 118.3583,91.7388774 118.3583,91.7388774 C118.3583,91.7388774 114.106826,86.6598417 111.138548,88.3412136 C108.17027,90.0225854 108.581102,93 107.233037,93 C105.884973,93 104.389803,92.2359334 102.747441,95.1179667 C101.652534,97.0393222 100.403386,98 99,98 Z" id="路径-80" fill="#F3F5FA" transform="translate(115.500000, 93.000000) rotate(7.000000) translate(-115.500000, -93.000000) "></path>
                        <path d="M113,43 L133,40.3948024 C131.255119,40.3249619 130.119833,39.9411366 129.594139,39.2433265 C128.805599,38.1966112 124.732303,39.2433265 124.732303,39.2433265 C124.732303,39.2433265 122.155652,36.195905 120.356696,37.2047281 C118.55774,38.2135512 118.806729,40 117.98972,40 C117.172711,40 116.266547,39.5415601 115.271176,41.27078 C114.607596,42.4235933 113.850537,43 113,43 Z" id="路径-80备份-2" fill="#F3F5FA" transform="translate(123.000000, 40.000000) rotate(7.000000) translate(-123.000000, -40.000000) "></path>
                    </g>
                    <g id="1" transform="translate(52.355464, 73.294564)">
                        <rect id="矩形" stroke="#F8FBFF" stroke-width="5" fill="#D9EAFF" x="2.5" y="2.5" width="132" height="194" rx="10"></rect>
                        <ellipse id="椭圆形" fill="#2D66C9" cx="67.5" cy="178.5" rx="57.5" ry="9.5"></ellipse>
                        <g id="编组-9" transform="translate(75.000000, 120.000000)">
                            <rect id="矩形" fill="#71AFFF" x="28" y="7" width="3" height="34"></rect>
                            <path d="M0,5 L0,15 C1.78481736,13.669499 2.67722604,12.0028323 2.67722604,10 C2.67722604,10 6.51837509,15.4837684 12.5059092,12.7418842 C16.4975986,10.9139614 18.1322827,10 17.4099616,10 C19.5780096,12.8948833 22.2046554,14.3423249 25.2898989,14.3423249 C28.3751423,14.3423249 31.0386035,12.8948833 33.2802823,10 C34.7879729,11.8279228 36.0985419,12.7418842 37.2119892,12.7418842 C38.3254366,12.7418842 39.1984245,11.8279228 39.830953,10 C41.8511599,12.8948833 44.2108218,14.3423249 46.9099388,14.3423249 C49.6090557,14.3423249 51.3076355,12.8948833 52.005678,10 C53.371325,10.3225123 54.0541486,11.2364736 54.0541486,12.7418842 C54.0541486,14.2472947 54.7027657,11.8540443 56,5.5621328 L0,5 Z" id="路径-45" fill="#DDDDDD"></path>
                            <ellipse id="椭圆形" fill="#FFFFFF" cx="28" cy="5" rx="28" ry="5"></ellipse>
                            <path d="M21.7537271,57.244397 C23.6048669,56.5143227 26.3536245,50.432857 30,39 L28.4832629,40.2408313 C23.9943265,50.4224344 21.0882788,55.513236 19.76512,55.513236 C18.4419611,55.513236 17.7609027,55.513236 17.7219445,55.513236 C17.2406482,55.0928902 17,55.4588491 17,56.6111128 C17,58.3395084 18.9770173,58.3395084 21.7537271,57.244397 Z" id="路径-47" fill="#71AFFF"></path>
                            <path d="M33.7537271,57.244397 C35.6048669,56.5143227 38.3536245,50.432857 42,39 L40.4832629,40.2408313 C35.9943265,50.4224344 33.0882788,55.513236 31.76512,55.513236 C30.4419611,55.513236 29.7609027,55.513236 29.7219445,55.513236 C29.2406482,55.0928902 29,55.4588491 29,56.6111128 C29,58.3395084 30.9770173,58.3395084 33.7537271,57.244397 Z" id="路径-47备份" fill="#71AFFF" transform="translate(35.500000, 48.500000) scale(-1, 1) translate(-35.500000, -48.500000) "></path>
                            <path d="M19.4410182,48.5470395 C19.5873698,49.6542075 20.1487447,50.0232636 21.1251429,49.6542075 C22.1015412,49.2851515 24.3564307,45.733749 27.8898113,39 L29,39 L21.8876917,51.8449182 C20.8446003,52.268387 20.0290425,51.8246078 19.4410182,50.5135805 C18.8529939,49.2025531 18.8529939,48.5470395 19.4410182,48.5470395 Z" id="路径-48" fill="#71AFFF"></path>
                        </g>
                        <g id="矩形">
                            <use fill="black" fill-opacity="1" filter="url(#filter-8)" xlink:href="#path-7"></use>
                            <rect stroke="#F6FAFF" stroke-width="4" fill="#D4E7FF" fill-rule="evenodd" x="49" y="20" width="93" height="85" rx="4"></rect>
                        </g>
                        <g id="编组-11" transform="translate(86.000000, 116.000000)">
                            <polygon id="路径-50" fill="#71AFFF" points="11 9 17.2796986 8.81847459 22 6.5 0 6.5 3.87743565 8.81847459"></polygon>
                            <path d="M2.01765783,6.4652842 C1.86196773,4.1089622 2.73582393,3.13119631 4.63922644,3.53198654 C7.49433021,4.13317187 4.63922644,1.35011352 7.83916086,0.227176862 C9.97245046,-0.521447578 11.4078959,0.580155646 12.1454972,3.53198654 C14.4298485,2.64299003 15.5720241,2.90962103 15.5720241,4.33187952 C15.5720241,4.33187952 17.0916036,3.61957396 18.2841227,4.06533559 C19.1012525,4.37077734 21.3352466,6.4652842 18.7076021,6.4652842 C14.902534,6.4652842 9.33921928,6.4652842 2.01765783,6.4652842 Z" id="路径-51" fill="#AACFFE"></path>
                            <ellipse id="椭圆形" fill="#3666B9" cx="11" cy="6.5" rx="11" ry="1"></ellipse>
                        </g>
                        <g id="编组-10" transform="translate(105.000000, 83.000000)">
                            <path d="M5,15.665816 C8.27803738,12.6332131 10.199362,11.4821859 10.7639738,12.2127344 C11.3285855,12.9432829 10.8802174,22.5390381 9.4188692,41 L6.91294086,41 L5,15.665816 Z" id="路径-49" fill="#2D66C9"></path>
                            <path d="M5,15.6344629 C6.64238807,16.1218457 7.93259696,16.1218457 8.87062668,15.6344629 C9.8086564,15.1470801 10.5184475,13.9355925 11,12 L5,15.6344629 Z" id="路径-52" fill="#0042A2"></path>
                            <path d="M3.61865977,2.82121245 C4.25460752,2.83388433 3.42317479,3.88048794 5.07499368,3.99589639 C6.14088849,4.0703678 5.89999742,3.11022352 6.22793819,2.82121245 C6.40820775,2.66234261 7.41446255,3.2064741 7.63005045,3.14976885 C8.12331652,3.02002701 8.12331652,2.46802111 7.63005045,1.49375117 C8.08171405,0.838200806 8.08171405,0.431371329 7.63005045,0.273262743 C6.38350305,-0.163101504 5.53181746,-0.0768540128 5.07499368,0.532005217 C4.85019062,-0.0206452647 4.36474598,-0.106892756 3.61865977,0.273262743 C2.77933651,0.700925592 2.6614972,1.10775507 3.26514184,1.49375117 C2.16546569,1.99489242 1.78267811,2.48915099 2.1167791,2.97652689 C2.6179306,3.70759074 3.22828323,2.81343382 3.61865977,2.82121245 Z" id="路径-53" fill="#FFFFFF"></path>
                            <path d="M5.49307085,4 L8.5,14.5" id="路径-54" stroke="#ACD1FF"></path>
                            <path d="M11.5,7.5 L8.5,15.5" id="路径-54备份" stroke="#ACD1FF"></path>
                            <path d="M6,12 C4.15507657,10.0982797 2.44433937,9.55276194 0.867788423,10.3634467 C-0.708762527,11.1741315 -0.13716927,11.5794739 2.5825682,11.5794739 L6,12 Z" id="路径-55" fill="#ACD1FF"></path>
                            <path d="M6,9 C4.15507657,7.0982797 2.44433937,6.55276194 0.867788423,7.36344671 C-0.708762527,8.17413149 -0.13716927,8.57947387 2.5825682,8.57947387 L6,9 Z" id="路径-55备份" fill="#ACD1FF"></path>
                            <path d="M14.8853884,12.2749686 C13.0461942,10.138977 11.3629284,9.50711392 9.83559111,10.3793792 C8.3082538,11.2516445 8.874727,11.7098105 11.5350107,11.7538772 L14.8853884,12.2749686 Z" id="路径-55备份-3" fill="#ACD1FF" transform="translate(11.942694, 11.137484) scale(-1, 1) rotate(38.000000) translate(-11.942694, -11.137484) "></path>
                            <path d="M14.9008293,15.1374902 C13.1159311,13.0785376 11.4386943,12.5070605 9.86911913,13.4230589 C8.29954394,14.3390573 8.85588526,14.7750232 11.5381431,14.7309565 L14.9008293,15.1374902 Z" id="路径-55备份-4" fill="#ACD1FF" transform="translate(11.950415, 14.068745) scale(-1, 1) rotate(-52.000000) translate(-11.950415, -14.068745) "></path>
                            <path d="M10.9598129,10.2582882 C9.81208479,8.90631081 8.75948834,8.5084395 7.80202355,9.06467428 C6.84455875,9.62090906 7.19838801,9.91059354 8.86351131,9.93372773 L10.9598129,10.2582882 Z" id="路径-55备份-2" fill="#ACD1FF" transform="translate(9.118752, 9.539876) rotate(27.000000) translate(-9.118752, -9.539876) "></path>
                            <path d="M9.92717271,7.45792722 C10.2963348,7.67750267 9.56080587,7.99697623 10.5000499,8.61436781 C11.1061305,9.01276165 11.1935369,8.38455942 11.4542032,8.32917807 C11.5974918,8.29873486 12.0569542,8.94515824 12.1966111,8.98479344 C12.5161465,9.07547897 12.6474485,8.76055662 12.5905172,8.04002638 C13.0107762,7.81684403 13.1075461,7.5847456 12.8808269,7.34373111 C12.2551039,6.67855465 11.736156,6.44337731 11.3239832,6.63819911 C11.3238769,6.24784616 11.0602948,6.03654916 10.5332369,6.00430809 C9.94031362,5.96803791 9.77458053,6.16078921 10.0360377,6.58256199 C9.27326995,6.50127852 8.93168474,6.65544107 9.01128204,7.04504962 C9.13067799,7.62946245 9.70056253,7.32314082 9.92717271,7.45792722 Z" id="路径-53备份" fill="#FFFFFF"></path>
                        </g>
                        <g id="编组-18" transform="translate(70.000000, 0.000000)">
                            <rect id="矩形" fill="#AACFFE" x="16" y="0" width="1" height="39"></rect>
                            <polygon id="路径-56" fill="#FFFCE7" points="14 46 0 96.1813351 34 96.1813351 18 46"></polygon>
                            <path d="M16,50 C17.6568542,50 19,48.73367 19,47.1715729 C19,45.6094757 13,45.6094757 13,47.1715729 C13,48.73367 14.3431458,50 16,50 Z" id="椭圆形" fill="#FFFFFF"></path>
                            <polygon id="椭圆形" fill="#AACFFE" points="21 48 17.7980694 35 14.0915018 35 11 48"></polygon>
                        </g>
                        <g id="编组-8备份" transform="translate(13.000000, 73.000000)">
                            <path d="M9.19990515,77 C0.0974481739,42.8919462 -0.374194789,24.465053 7.78497626,21.7193201 C20.0237328,17.6007209 31.9995547,31.2837711 31.9995547,59.8024563 C32.0670224,59.9634028 24.4671392,65.6959174 9.19990515,77 Z" id="路径-21" fill="#3F85FF"></path>
                            <path d="M11.1545719,73 C2.13567278,42.0972318 1.64354604,25.3104563 9.67819165,22.6396735 C21.7301601,18.6334993 34.999587,33.6704913 34.999587,61.4107048 C35.0660249,61.5672579 27.1176865,65.4303564 11.1545719,73 Z" id="路径-21备份" fill="#94C3FF"></path>
                            <polygon id="路径-24" fill="#71AFFF" points="9.70841969 72 0 107 4.21461827 107 12 72"></polygon>
                            <polygon id="路径-24备份" fill="#71AFFF" points="15.669861 73 8 103 12.1696607 103 17 73"></polygon>
                            <path d="M50.0322002,64.12453 C53.0249741,71.4499404 54.3138185,74.7600021 56.360498,80.9345009 C58.4071776,87.1089998 61.8365279,98.4286232 61.8734269,98.7701804 C62.573882,105.253966 64.3057366,100.92696 67.8365121,102.287194 C68.3398928,102.481121 75.5450131,103.789258 75.5450131,102.287194 C73.8944929,101.311077 68.9532636,100.644495 67.6141141,96.9933537 C66.7213478,94.5592596 65.1830662,89.8922446 62.9992694,82.9923088 C53.9017717,69.3055083 49.5794153,63.0162487 50.0322002,64.12453 Z" id="路径-35备份" fill="#FFCEC0"></path>
                            <path d="M61.3030995,98 C59.7905956,100.352678 59.594761,101.997254 60.7155954,102.933728 C62.3968471,104.338439 78.4778934,104.597369 75.6722203,102.216979 C72.8665472,99.8365881 65.752998,100.303572 65.752998,99.4821306 C65.752998,98.9345032 64.2696985,98.4404596 61.3030995,98 Z" id="路径-58备份" fill="#3F3F3F"></path>
                            <polygon id="路径-25" fill="#71AFFF" points="29 69.7472645 36.0692553 106.694041 40 107 30.2033558 68"></polygon>
                            <polygon id="路径-25备份" fill="#71AFFF" points="32 68.8507699 46.0553849 103 50 102.688981 32.8555064 67"></polygon>
                            <path d="M7,74.2959473 C24.3013865,77.7106315 36.002618,77.8912622 42.1036946,74.8378392 C48.2047711,71.7844163 50.2576871,68.1718032 48.2624427,64 L7,70.706215 L7,74.2959473 Z" id="路径-23" fill="#94C3FF"></path>
                            <path d="M7,70.6955548 C8.96543782,73.5651849 14.4029698,75 23.3125961,75 C32.2222223,75 38.2975375,74.3644645 41.5385416,73.0933934 C47.1343302,69.5501253 49.5826594,67.1316311 48.8835291,65.8379108 C46.9622971,62.2827264 40.5609584,60.9991104 34.0906314,60.227767 C24.0885069,59.0353895 15.0582965,62.5246521 7,70.6955548 Z" id="路径-22" fill="#AACFFE"></path>
                            <polygon id="路径-39" fill="#FFDED5" points="45 32 45 25 48 25 48 32"></polygon>
                            <path d="M26,19 C28.4579201,20.228784 30.7112808,21.2106296 32.7600821,21.9455366 C34.8088834,22.6804437 37.7827954,28.5079832 41.6818182,39.4281553 L44.344418,31.2328549 L49,31.2328549 C47.8258442,41.2991899 46.4945409,46.6585844 45.0060901,47.3110384 C42.773414,48.2897194 39.5800057,50.0318908 32.7600821,37.7183799 C32.6271599,37.4783861 32.839734,34.3345134 32.7600821,34.0708767 C31.3372946,29.3616488 29.8657905,25.9960549 28.3455698,23.9740947 L26,19 Z" id="路径-31" fill="#FED095"></path>
                            <path d="M23.6022929,56.5922391 C31.4124838,55.0424161 52.0799104,56.5634262 52.6097583,57.1218882 C55.4943195,60.1622281 65.8350084,85.8036018 67,89.7628072 C67,94 59.1729513,94 59.1729513,94 C59.1729513,93.4535775 45.3144328,66.9619548 42.7375089,68.2445193 C36.9949024,71.1026801 29.3095754,72.0148521 22.2235408,69.9529024 C17.4995177,68.5782693 17.0272237,63.5939685 20.8066586,55 C16.2920095,57.3271979 17.2238876,57.8579443 23.6022929,56.5922391 Z" id="路径-37备份" fill="#FFFFFF"></path>
                            <path d="M31.5,23 C34.0669053,23.0210802 35.350358,24.693017 35.350358,28.0158102 C35.350358,31.3386034 35.350358,36.3855459 35.350358,43.1566378 L32.5176879,43.1566378 L30,23 L31.5,23 Z" id="路径-15" fill="#FFB14E"></path>
                            <path d="M34.9616831,44.3422818 C34.8045147,54.209426 34.5214715,56.1241502 34.9616831,56.1241502 C35.5799048,56.1241502 28.7171268,59.7494334 14.3733492,67 C14.0625647,54.420602 13.6546342,46.4503488 13.1495578,43.0892405 C10.3068475,24.17199 12.8144011,20.1535012 19.8072753,19.1109676 C23.5675467,18.5503671 27.2268184,20.214098 29.0210169,21.8507587 C35.4842489,27.7464931 35.0252379,40.3522685 34.9616831,44.3422818 Z" id="路径-32" fill="#FED095"></path>
                            <path d="M44.0322002,66.12453 C47.0249741,73.4499404 48.3138185,76.7600021 50.360498,82.9345009 C52.4071776,89.1089998 55.8365279,100.428623 55.8734269,100.77018 C56.573882,107.253966 58.3057366,102.92696 61.8365121,104.287194 C62.3398928,104.481121 69.5450131,105.789258 69.5450131,104.287194 C72.1245972,104.287194 62.9532636,102.644495 61.6141141,98.9933537 C60.7213478,96.5592596 59.1830662,91.8922446 56.9992694,84.9923088 C47.9017717,71.3055083 43.5794153,65.0162487 44.0322002,66.12453 Z" id="路径-35" fill="#FFCEC0"></path>
                            <path d="M25.1009992,60.43057 C32.8980981,58.913867 49.7013781,61.8487856 50.2303378,62.3953131 C53.1100637,65.3706805 62.5794566,87.5559734 63.7424954,91.43057 C63.7424954,95.5772133 56.2939203,96.3785977 56.2939203,96.3785977 C56.2939203,95.8437793 46.566282,72.2435911 43.5584937,72.2435911 C36.4578702,72.2435911 28.6736934,74.2614765 21.599537,72.2435911 C14.5253806,70.2257056 15.5494293,62.2885553 25.1009992,60.43057 Z" id="路径-37备份-2" fill="#E5E5E5"></path>
                            <path d="M22.7270913,60.373091 C30.5241902,58.856388 47.5941425,62.4182156 48.1231023,62.9647431 C51.0028281,65.9401105 60.8369612,89.6716411 62,93.5462377 C62,97.692881 54.1866848,96.9479547 54.1866848,96.9479547 C54.1866848,96.4132093 44.4590464,72.813021 41.4512581,72.813021 C34.3506346,72.813021 26.5664579,74.8309065 19.4923014,72.813021 C14.7761972,71.467764 13.097295,68.1850047 14.455595,62.9647431 C13.6022126,62.4756319 16.359378,61.6117479 22.7270913,60.373091 Z" id="路径-37" fill="#FFFFFF"></path>
                            <path d="M21.0345349,12 C20.8858009,16.9857576 21.2174897,20.1221342 22.0296013,21.4091298 C22.6209728,22.3463069 23.5425761,23.3242988 25.3832636,22.8965903 C25.8413105,22.790157 26.7135559,22.2943368 28,21.4091298 C26.8852965,19.9623193 26.3279448,18.1669185 26.3279448,16.0229276 C26.3279448,13.8789367 24.5634748,12.5379609 21.0345349,12 Z" id="路径-29" fill="#FDD1C5"></path>
                            <path d="M49.9062022,25.3105527 L52,22.7514259 C48.8578965,19.6892175 46.6469671,19.1830802 45.3672119,21.233014 C43.447579,24.3079147 43.5680488,27.3063741 45.6110074,27.905395 C46.9729798,28.3047422 48.4047114,27.4397947 49.9062022,25.3105527 Z" id="路径-40" fill="#FFDED5"></path>
                            <path d="M29.1658166,3.82100983 C30.3951525,6.32229376 30.806761,8.14917725 30.400642,9.30166033 C29.994523,10.4541434 30.5276424,11.1771686 32,11.4707359 C30.8897994,15.8235786 29.4261977,18 27.6091948,18 C24.8836904,18 22.140888,15.7925079 21,10.6544433 C21,3.88023763 23.7219389,1.60242646 29.1658166,3.82100983 Z" id="路径-26" fill="#FFDED5"></path>
                            <path d="M30.8270538,6.15811862 C31.5188385,2.05270621 30.1352692,0 26.6763458,0 C23.2174224,0 21.4879607,1.03761747 21.4879607,3.11285241 C19.2003168,3.22956146 17.4708551,4.2446502 16.2995756,6.15811862 C14.5426564,9.02832126 21.0189632,17.3853552 22.6166792,12.4977662 C24.4549724,9.83337646 20.0247461,7.6689052 25.5899262,6.15811862 C26.3107673,5.60495981 27.4012748,6.13488473 28.318716,6.15811862 C28.8810351,6.17235917 29.7171477,6.17235917 30.8270538,6.15811862 Z" id="路径-27" fill="#464646"></path>
                            <path d="M45.6218126,47.0406934 C49.4867349,46.7197592 52.5468434,45.2193959 52.4567561,43.6895381 C52.3666689,42.1596804 49.1605002,41.1796543 45.2955779,41.5005885 C41.4306556,41.8215227 38.3705471,43.321886 38.4606343,44.8517438 C38.5507216,46.3816015 41.7568903,47.3616276 45.6218126,47.0406934 Z" id="椭圆形" fill="#FFFFFF"></path>
                            <path d="M46.059008,45.9313196 C49.0960585,45.68527 51.5131628,44.7416906 51.4577616,43.823776 C51.4023604,42.9058613 48.895433,42.3612071 45.8583825,42.6072567 C42.821332,42.8533062 40.4042277,43.7968856 40.4596289,44.7148003 C40.5150301,45.6327149 43.0219575,46.1773691 46.059008,45.9313196 Z" id="椭圆形" fill="#EDEDED"></path>
                            <path d="M37.6873964,45.5969816 C38.4477801,44.2400454 38.0420637,43.2515648 40.358405,43.8376827 C41.5813946,44.1471431 42.5,44.1983373 44.0367237,43.2811657 C44.8928809,42.7701806 45.1807536,42.9556863 44.9003418,43.8376827 L42.5,45.5969816 C41.8970197,46.5023422 42.8720762,46.9550224 45.4251693,46.9550224 C47.9782625,46.9550224 49.9894378,46.8191843 51.4586952,46.5475081 C50.8220032,47.3306563 49.6691047,47.8148203 48,48 C46.4315286,48.1740149 45.3658909,48.7144339 43.1912121,48.7144339 C37.5452236,48.7144339 33.4814862,49.4762892 31,51 L31,48.7144339 L35.5882885,47.5703871 C36.4807713,47.1594075 37.180474,46.5016057 37.6873964,45.5969816 Z" id="路径-42" fill="#FFDED5"></path>
                            <path d="M11.0772601,24.7633665 C8.2591822,37.3536303 7.02016545,53.8736273 15.9714158,52.9640076 C21.9389161,52.3575944 27.2817775,51.9385465 32,51.7068639 L30.6851758,45.459241 C21.8757439,45.6655811 17.4956886,45.6655811 17.5450101,45.459241 C21.3549411,29.5201134 20.5,27.3234485 20.5,25.811523 C20.5,24.5670711 17.5541639,22.5036559 16.3079451,21.6188969 C15.2389547,20.859962 12.1630655,19.9123378 11.0772601,24.7633665 Z" id="路径-30" fill="#FEBD6A"></path>
                            <path d="M21.7673886,19 C22.2172807,19 21.6281511,19.0213558 20,19.0640674 C20.3692677,19.8929922 20.8440162,20.6875952 21.4242456,21.4478763 C22.0044749,22.2081575 22.5322765,23.3921987 23.0076503,25 C25.354837,23.2018637 26.321181,22.2125416 25.9066825,22.0320337 C24.5652875,21.4478763 23.7302279,20.4282262 21.7673886,19 Z" id="路径-44" fill="#FFFFFF"></path>
                            <path d="M27.5601256,20 C28.0305267,20 27.5104848,20.3732821 26,21.1198464 L26.8105126,25 C28.2701709,23.916759 29,23.0860308 29,22.5078152 C29,22.0898848 27.8768082,21.5171137 27.5601256,20 Z" id="路径-44备份" fill="#FFFFFF" transform="translate(27.500000, 22.500000) scale(-1, 1) translate(-27.500000, -22.500000) "></path>
                            <path d="M40,20.6201044 C40.5437357,24.9681441 41.1050802,27.3988961 41.6840337,27.9123603 C41.9342428,28.1342667 43.5744456,27.8581941 43.8915404,27.9123603 C45.1906021,28.1342667 46.3303793,22.540159 45.912019,20.0300913 C43.7577767,19.9189633 41.7871037,20.1156343 40,20.6201044 Z" id="路径-33" fill="#FFFFFF"></path>
                            <path d="M45.2380691,22 C46.6073894,22.0361968 47.1785634,22.3586098 46.9515912,22.9672391 C46.724619,23.5758685 46.0740886,23.9201221 45,24" id="路径-41" stroke="#DDDDDD"></path>
                            <ellipse id="椭圆形" fill="#FFB14E" cx="43" cy="20" rx="3" ry="1"></ellipse>
                            <path d="M56.3030995,100 C54.7905956,102.352678 54.594761,103.997254 55.7155954,104.933728 C57.3968471,106.338439 73.4778934,106.597369 70.6722203,104.216979 C67.8665472,101.836588 60.752998,102.303572 60.752998,101.482131 C60.752998,100.934503 59.2696985,100.44046 56.3030995,100 Z" id="路径-58" fill="#3F3F3F"></path>
                            <path d="M48.322034,20 C46.1542666,21.0122641 45.5043114,21.9470224 46.3721685,22.804275 C47.6739541,24.0901538 51.6489997,24.448237 51.975276,23.3361777 C52.1927936,22.5948049 50.9750463,21.4827457 48.322034,20 Z" id="路径-59" fill="#FDD1C5"></path>
                            <path d="M22.5567905,11 C20.7728803,11.0623051 20.5220933,11.8226528 21.8044297,13.2810432 C23.086766,14.7394336 23.3375529,13.9790858 22.5567905,11 Z" id="路径-60" fill="#FDD1C5"></path>
                        </g>
                    </g>
                    <g id="2" transform="translate(205.355464, 182.294564)">
                        <rect id="矩形" fill="#D9EAFF" x="0" y="31" width="145" height="194" rx="4"></rect>
                        <g id="编组-12" filter="url(#filter-9)" transform="translate(12.000000, 0.000000)">
                            <rect id="矩形" fill="#F3F5FA" x="0" y="0" width="149" height="162" rx="9"></rect>
                            <rect id="矩形" stroke="#9BC7FF" stroke-width="3" fill="#D4E7FF" x="8.5" y="8.5" width="61" height="146" rx="4"></rect>
                            <g id="编组-16" transform="translate(79.000000, 7.000000)">
                                <rect id="矩形备份-8" stroke="#9BC7FF" stroke-width="3" fill="#D4E7FF" x="1.5" y="1.5" width="61" height="146" rx="4"></rect>
                                <rect id="矩形" fill="#AACFFE" x="12" y="109" width="18" height="38"></rect>
                                <rect id="矩形备份-10" fill="#AACFFE" x="36" y="92" width="18" height="55"></rect>
                                <rect id="矩形备份-9" fill="#9BC7FF" x="0" y="0" width="64" height="25" rx="3"></rect>
                                <polygon id="矩形备份-11" fill="#BBD9FF" points="39 88 51 88 54 92 36 92"></polygon>
                                <polygon id="路径-6" fill="#EEF6FF" points="18.6816269 25 12 79.3755572 30 79.3755572 22.7249524 25"></polygon>
                                <polygon id="路径-6备份" fill="#EEF6FF" points="43 25 38 64 52 64 46.3202489 25"></polygon>
                                <polygon id="矩形" fill="#EAF3FF" points="38 77 53 77 50.8571429 90 40.1428571 90"></polygon>
                                <circle id="椭圆形" stroke="#AACFFE" fill="#D4E7FF" cx="45.5" cy="76.5" r="4"></circle>
                                <polygon id="矩形" fill="#BBD9FF" points="15 105 27 105 30 109 12 109"></polygon>
                                <path d="M16.4419633,99.8431364 C15.9714615,100.369833 15.7362106,101.088788 15.7362106,102 C15.7362106,103.119651 16.2845524,103.286806 16.4419633,104.069093 C16.680047,105.252299 16.5440646,106.289665 16.7196568,106.482747 C16.9954197,106.785977 17.1178086,104.970334 17.1178086,104.069093 C17.1178086,102.485721 17.711201,106.883209 25.700252,106.482747 C26.6827096,105.681191 24.5696724,105.3177 23.198994,104.617755 C22.307975,104.162751 21.4664567,103.413551 20.844254,103.179818 C18.5061631,102.301505 19.343098,100.409848 18.6354733,100.590581 C18.2533513,100.688178 17.5221813,100.43903 16.4419633,99.8431364 Z" id="路径-14" fill="#EAF3FF"></path>
                            </g>
                            <rect id="矩形备份-12" fill="#AACFFE" x="48" y="130" width="16" height="18"></rect>
                            <rect id="矩形" fill="#9BC7FF" x="7" y="7" width="64" height="25" rx="4"></rect>
                            <polygon id="矩形备份-13" fill="#BBD9FF" points="50.6666667 125 61.3333333 125 64 130 48 130"></polygon>
                            <polygon id="路径-6备份-2" fill="#EEF6FF" points="32.5 33 15 95 64 95 44.120871 33"></polygon>
                            <rect id="矩形" fill="#AACFFE" x="29" y="111" width="2" height="34"></rect>
                            <polygon id="矩形" fill="#AACFFE" points="20 143 37.5441354 143 43 148 24.3092002 148"></polygon>
                            <path d="M28.218059,61 C29.5016675,62.4365112 31.0769218,62.795639 32.9438219,62.0773834 C32.9438219,62.0773834 32.9438219,62.9981241 32.9438219,64.8396056 C36.3786393,66.6101832 38.096048,67.495472 38.096048,67.495472 C38.096048,67.495472 38.096048,68.6085965 38.096048,70.8348454 C35.8263465,76.2892451 35.0666,79.8117135 35.8168084,81.4022507 C36.9421211,83.7880565 38.096048,87.2007397 38.096048,88.373698 C38.096048,89.1556702 38.4876605,90.2784974 39.2708854,91.7421797 L38.096048,91.7421797 C37.4566283,95.0328595 37.1369185,97.1760958 37.1369185,98.1718885 C37.1369185,99.6655775 40,113.915188 40,117.351589 C40,119.642523 39.3653493,119.642523 38.096048,117.351589 L39.2708854,119.65007 C35.809288,121.891052 33.1017509,123.011544 31.1482741,123.011544 C29.1947974,123.011544 25.9870602,124.007696 21.5250625,126 C19.1750208,125.705323 18,125.133578 18,124.284764 C18,123.435951 19.5083042,115.775965 22.5249125,101.304808 C23.1914791,96.486839 23.1914791,93.5596541 22.5249125,92.5232535 C21.5250625,90.9686526 22.2431716,85.6725519 23.8274137,84.1066311 C24.6637143,83.280002 24.9995061,82.3242655 24.834789,81.2394215 C24.8059199,81.0492868 24.7280238,80.7551616 24.6011006,80.3570457 L23.8274137,81.2394215 L21.5250625,74.2534582 L22.5249125,72.5818848 C21.1917792,69.8881057 20.8584959,68.1926347 21.5250625,67.495472 C22.5249125,66.449728 28.9818409,65.1750547 28.218059,63.6262191 C27.7088711,62.593662 27.7088711,61.7182556 28.218059,61 Z" id="路径-20" fill="#BEDBFF"></path>
                        </g>
                        <ellipse id="椭圆形" fill="#2D66C9" cx="88" cy="211.5" rx="42" ry="4.5"></ellipse>
                        <g id="人1" transform="translate(51.000000, 53.000000)">
                            <path d="M55.9329449,67.7128337 L52,64.6074517 L53.4298393,62 L57.7247658,67.7128337 C59.6374362,69.5177155 60.6949675,70.737215 60.8973598,71.3713322 C61.2699855,72.5388091 60.2777006,74 59.1074181,74 C57.6824806,74 57.2215966,73.1237774 57.7247658,71.3713322 L55.9329449,67.7128337 Z" id="路径-16" fill="#FFDED5"></path>
                            <g id="路径-28备份" transform="translate(35.000000, 26.000000)">
                                <mask id="mask-11" fill="white">
                                    <use xlink:href="#path-10"></use>
                                </mask>
                                <use id="蒙版" fill="#FF8232" xlink:href="#path-10"></use>
                                <path d="M1.58825708,-2.9270496 C6.68337589,-2.9756832 9.82062353,1.83333333 11,11.5 C11.6076371,16.4804498 9.50317064,17.7345486 8.33336525,20 C7.59956783,21.421076 6.31984976,23.1404657 4.49421104,25.1581691 L3.2737863,23.1723334 C1.4424945,24.3114167 0.378721765,22.5873055 0.0824681119,18 C-0.213785542,13.4126945 0.288144113,6.43701125 1.58825708,-2.9270496 Z" fill="#DE6F01" mask="url(#mask-11)"></path>
                            </g>
                            <path d="M45,75.6090736 C40.5648669,90.4242594 37.4050016,100.867161 35.5204042,106.937779 C34.6522473,109.734264 32.8521857,111.65874 31.8438495,113.015761 C29.5688372,116.077477 25.4343912,120.365245 20.5475898,126.334729 C15.8457625,132.078258 12.1279099,135.966681 9.39403184,138 L8,136.623601 C12.3325677,129.920641 14.8203071,125.894302 15.4632181,124.544585 C18.0232999,119.169991 19.2067586,115.210311 22.2307692,113.015761 C24.7606838,111.17978 26.1837607,109.153786 26.5,106.937779 L29.5029769,74 L45,75.6090736 Z" id="路径-12" fill="#FDD1C5"></path>
                            <path d="M37,84.7749 C44.6583016,99.7410441 49.1998637,109.991784 50.6246864,115.527119 C51.606018,119.339523 50.8289935,124.861201 51.4438363,131.10096 C51.8576526,135.300592 54.6225866,139.974571 56.0067523,143.76868 C57.0450096,146.614627 57.2909028,149.175692 57.8444783,150.760945 C59.4365459,155.32009 60.146688,155.066303 59.9749048,149.999582 C58.1168084,139.712113 57.2160953,132.070531 57.2727653,127.074834 C57.3577703,119.581289 57.9294833,115.515799 57.8444783,112.850392 C57.8062936,111.653077 56.5042104,109.773213 56.0848921,107.72153 C54.6932686,100.912454 53.0679409,87.502754 51.4438363,84.7749 C50.0348542,82.4083667 45.2202421,82.4083667 37,84.7749 Z" id="路径-11" fill="#FFDED5"></path>
                            <path d="M44,18.1854443 C41.3534361,19.4962298 40.0301541,21.5452655 40.0301541,24.3325515 C40.0301541,27.1198374 40.8534361,29.660018 42.5,31.9530934 C36.9680054,32.8646924 34.4915902,30.3245118 35.0707546,24.3325515 C35.6499189,18.3405911 37.126334,13.563074 39.5,10 L44,18.1854443 Z" id="路径-5" fill="#FFCDC0"></path>
                            <path d="" id="路径-8" stroke="#979797"></path>
                            <path d="M33.6436776,53.077908 C35.3351513,51.6406973 36.957499,51.6406973 38.5107206,53.077908 C40.8405531,55.2337239 40.5841685,51.3991935 45.3866635,63.9438036 C48.5883268,72.306877 51.1261056,79.7733229 53,86.3431413 C48.9525848,87.4860793 45.9780051,88.0376993 44.0762608,87.9980011 C36.3729753,87.8371982 30.6694604,85.9932061 28.5178533,86.3431413 C23.295867,87.19244 27.1662374,81.6275891 26.0910943,78.0328665 C22.8542958,67.2106858 23.3751702,61.2665466 27.6537174,60.2004488 L33.6436776,53.077908 Z" id="路径-10" fill="#FF8232"></path>
                            <path d="M29.0387359,57 L45.4156762,63.3406144 C37.76112,65.4648187 32.3107343,65.3512805 29.0645193,63 C25.8183042,60.6487195 25.8097097,58.6487195 29.0387359,57 Z" id="路径-34" fill="#DD6E00"></path>
                            <path d="M38,28 C41.1027899,30.8007738 40.6528426,30.5356202 43.1122802,32.1336552 C46,34.0099692 44.5109429,38.5359348 43.1122802,40.0854384 C39.795494,43.7599288 39.795494,47.9903934 43.1122802,52.7768321 L48,63 C34.6666667,61.4364237 28,59.1234532 28,56.0610886 C28,51.4675415 32.1595834,37.7107467 32.1595834,31.5787516 C32.1595834,25.4467564 32.0879691,19.267975 33.5148752,20.070603 C34.9417813,20.873231 34.8972101,25.1992262 38,28 Z" id="路径-9" fill="#FF8232"></path>
                            <path d="M11.6825325,135.824716 C7.71167539,139.836494 6.15885509,142.811926 7.02407158,144.751013 C8.32189631,147.659643 8.32189631,149.985792 11.1111166,149.985792 C13.9003368,149.985792 9.53020387,155.96048 6.20438557,151.086361 C2.87856727,146.212242 3.98012343,147.174638 2.20621747,144.751013 C0.432311519,142.327387 -1.3760245,139.854728 1.53508796,137.619642 C2.66435146,136.75262 3.96885185,136.898717 5.64540238,135.824716 C8.29080785,134.130066 10.0617472,131.259426 9.20016883,134.41294 C8.71375574,136.19329 9.54121028,136.663882 11.6825325,135.824716 Z" id="路径-13" fill="#FFFFFF"></path>
                            <path d="M57.1121969,148.262636 C56.3395308,151.233825 55.969455,153.15496 56.0019695,154.026041 C56.0988645,156.621908 57.7454656,157.062828 60.2861401,157.062828 C66.0154123,157.062828 65.883988,158 72.2883964,158 C75.4917832,156.0183 66.9825728,152.043146 64.5417532,151.195588 C60.92834,149.940856 62.2002633,149.569456 60.2861401,148.262636 C58.3720169,146.955816 59.7944493,150.937398 58.7008476,151.195588 C58.1102953,151.335013 57.5807451,150.357362 57.1121969,148.262636 Z" id="路径-14" fill="#FFFFFF"></path>
                            <path d="M33.5,33 C35.2530473,39.7387387 35.4413091,45.5585586 34.0647854,50.4594595 C32.6882618,55.3603604 31.2843265,64.2072072 29.8529795,77 L27.279504,76.2033691 L33.5,33 Z" id="路径-28" fill="#DE6F01"></path>
                            <polygon id="路径-19" fill="#464646" points="16.5610261 82 34 85.0653078 30 109.086044 12 106"></polygon>
                            <polygon id="路径-19备份" fill="#FFFFFF" transform="translate(30.634599, 92.847007) rotate(-23.000000) translate(-30.634599, -92.847007) " points="21.6314392 82.2952764 44.2266797 87.9191048 42.3048379 103.398737 17.0425179 97.6081474"></polygon>
                            <path d="M23,83 C24.0018132,78.1459541 25.8142628,76.0991093 28.4373486,76.8594656 C31.0604345,77.6198219 31.5813183,80.2352894 30,84.7058681" id="路径-18" stroke="#FFFFFF"></path>
                            <path d="M25.1184571,84.4685961 C26.1202703,79.0083846 27.9327198,76.705933 30.5558057,77.5612414 C33.1788916,78.4165498 33.6997754,81.3586328 32.1184571,86.3874903" id="路径-18备份" stroke="#FFFFFF" transform="translate(29.064519, 81.887490) rotate(-23.000000) translate(-29.064519, -81.887490) "></path>
                            <path d="M28,59 C28.3610957,68.081919 28.6924459,73.1513627 28.9940507,74.208331 C29.4464579,75.7937835 29.9990741,77.6446908 28.9940507,78.4239483 C27.9890273,79.2032058 27.5467079,79.1358864 25.0399277,78.5564268 C24.8076405,78.502732 25.6401382,78.4309178 26.2130619,76.7645319 C26.4558551,76.0583521 27.164778,74.427648 26.8351662,73.0108265 C26.2913689,70.6733384 26.0840008,66.0030629 26.2130619,59 L28,59 Z" id="路径-17" fill="#FFDED5"></path>
                            <path d="M46.4679428,5 C48.1891191,7.88581839 48.1891191,10.3858184 46.4679428,12.5 C46.4038794,12.5786914 47.4943359,14.3017329 47.4943359,15 C47.4943359,15.4297885 47.1522049,15.7656868 46.4679428,16.0076949 C46.1559809,18.6692316 45.3333333,20 44,20 C42,20 40.3824794,18.2755333 38.4164027,15 C36.450326,11.7244667 37.029129,10.708035 37.029129,7.85401748 C37.029129,5.95133916 40.1754003,5 46.4679428,5 Z" id="路径-3" fill="#FFDED5"></path>
                            <path d="M29.5,23 C25.5724557,38.9592809 24.0724557,50.9442897 25,58.9550266 C25.9275443,66.9657635 26.1159546,70.2259002 25.565231,68.7354367 L29.5519354,68.7354367 L30,52 C33.9419487,42.4885645 35.5398161,35.8073652 34.793602,31.9564022 C34.0473879,28.1054392 32.2828539,25.1199718 29.5,23 Z" id="路径-7" fill="#FF8232"></path>
                            <path d="M48.3851456,9.05192977 C52.6021349,5.35144782 48.3851456,-2.32291737 37.7781765,0.6825625 C32.4190117,2.2010794 31.8814046,5.12729446 29.3699601,10.4928915 C28.4276692,12.506057 24.424346,10.8696261 22.8389772,13.9454996 C21.5677081,16.4119685 19.0750137,17.8055066 17.8777926,19.4040781 C16.7492752,20.910914 11.1570271,20.3912809 9.43544672,21.5 C7.05299155,23.0343307 7.66631019,35.1314666 11.0511796,36.9686767 C14.570136,38.8786654 15.4424273,43.5474169 19.3001308,42.9471161 C26.2527432,41.8652138 26.5013566,36.8754699 28.0577681,35.4651145 C30.0914317,33.6222932 33.5688776,33.2966624 34.8325722,30.6751115 C36.2150635,27.8071151 33.2933281,23.575379 35.5357523,22.5019814 C37.7781765,21.4285839 38.9403703,16.7241285 38.9403703,14.7680181 C38.9403703,6.31079783 44.1681562,12.7524117 48.3851456,9.05192977 Z" id="路径-4" fill="#464646"></path>
                        </g>
                    </g>
                    <g id="椭圆形">
                        <use fill="black" fill-opacity="1" filter="url(#filter-13)" xlink:href="#path-12"></use>
                        <use fill="#FFFFFF" fill-rule="evenodd" xlink:href="#path-12"></use>
                    </g>
                    <g id="椭圆形备份">
                        <use fill="black" fill-opacity="1" filter="url(#filter-15)" xlink:href="#path-14"></use>
                        <use fill="#FFFFFF" fill-rule="evenodd" xlink:href="#path-14"></use>
                    </g>
                    <g id="椭圆形备份-2">
                        <use fill="black" fill-opacity="1" filter="url(#filter-17)" xlink:href="#path-16"></use>
                        <use fill="#FFFFFF" fill-rule="evenodd" xlink:href="#path-16"></use>
                    </g>
                    <g id="椭圆形备份-4">
                        <use fill="black" fill-opacity="1" filter="url(#filter-19)" xlink:href="#path-18"></use>
                        <use fill="#FFFFFF" fill-rule="evenodd" xlink:href="#path-18"></use>
                    </g>
                    <g id="vip" transform="translate(463.855464, 32.794564) rotate(27.000000) translate(-463.855464, -32.794564) translate(452.355464, 21.294564)" fill-rule="nonzero">
                        <rect id="矩形" fill="#000000" opacity="0" x="0" y="0" width="23" height="23"></rect>
                        <path d="M22.8329968,9.95575828 L17.6516592,2.4151884 C17.4732609,2.15520241 17.1769985,1.99975746 16.8603529,2.00000028 L6.13964706,2.00000028 C5.82303848,2.00000028 5.52684152,2.15531638 5.34834082,2.4151884 L0.167003221,9.95575828 C-0.0921984254,10.3329988 -0.0454792378,10.8397066 0.277961292,11.1638209 L10.8196518,21.7187437 C10.9997902,21.8986585 11.2446167,22.0000003 11.5,22.0000003 C11.7553833,22.0000003 12.0002098,21.8986585 12.1803482,21.7187437 L22.7220387,11.1638209 C23.0454792,10.8397066 23.0921984,10.3329988 22.8329968,9.95575828 Z" id="形状" fill="#2980FF"></path>
                        <path d="M15.5438429,7.14881061 C15.0925386,6.85863253 14.5024752,7.00606172 14.2260794,7.47596301 L11.5000671,12.095879 L8.77383028,7.47596301 C8.49698544,7.00606172 7.90714652,6.85863253 7.45606682,7.14881061 C7.0056607,7.4373506 6.86488072,8.05210692 7.14217462,8.52224222 L10.684127,14.5247164 C10.8581374,14.8200428 11.1673144,15 11.4998426,15 C11.8323707,15 12.1415478,14.8200428 12.3155582,14.5247164 L15.8575106,8.52224222 C16.1352535,8.05234093 15.9944735,7.43758461 15.5438429,7.14881061 L15.5438429,7.14881061 Z" id="路径" fill="#FFFFFF"></path>
                    </g>
                    <g id="bag-购物袋" transform="translate(208.855464, 376.794564) rotate(-12.000000) translate(-208.855464, -376.794564) translate(196.355464, 364.294564)" fill-rule="nonzero">
                        <rect id="矩形" fill="#000000" opacity="0" x="0" y="0" width="25" height="25"></rect>
                        <path d="M22.7221307,25 L2.27786933,25 C1.90215976,25 1.54547849,24.8382935 1.30267708,24.5578095 C1.05987566,24.2773255 0.955563678,23.9065198 1.01748062,23.544 L3.57301328,8.544 C3.67592446,7.94146143 4.20894095,7.5 4.833402,7.5 L20.166598,7.5 C20.7910591,7.5 21.3240755,7.94146143 21.4269867,8.544 L23.9825194,23.544 C24.0444363,23.9065198 23.9401243,24.2773255 23.6973229,24.5578095 C23.4545215,24.8382935 23.0978402,25 22.7221307,25 Z M17.6110653,6.25 L15.0555327,6.25 L15.0555327,5 C15.0555326,3.61928815 13.9113817,2.5 12.5,2.5 C11.0886183,2.5 9.94446736,3.61928815 9.94446733,5 L9.94446733,6.25 L7.38893466,6.25 L7.38893466,5 C7.38893466,2.23857625 9.67723656,0 12.5,0 C15.3227634,0 17.6110653,2.23857625 17.6110653,5 L17.6110653,6.25 Z" id="形状" fill="#FE8232"></path>
                    </g>
                    <g id="卡券管理" transform="translate(45.355464, 100.294564) rotate(-27.000000) translate(-45.355464, -100.294564) translate(34.355464, 89.294564)" fill-rule="nonzero">
                        <rect id="矩形" fill="#000000" opacity="0" x="0" y="0" width="22" height="22"></rect>
                        <path d="M21.3125,19 L0.6875,19 C0.307804234,19 0,18.6992677 0,18.3282955 L0,13.7472712 C0,13.3762991 0.307804234,13.0755668 0.6875,13.0755668 C1.24417774,13.0863492 1.78224793,12.8796643 2.18235635,12.5013587 C2.58246477,12.1230531 2.81153324,11.6044024 2.81875,11.0604534 C2.84970277,10.4946185 2.637013,9.94192595 2.23217117,9.536178 C1.82732933,9.13043005 1.26724137,8.90861528 0.6875,8.92443325 C0.307804234,8.92443325 0,8.62370092 0,8.2527288 L0,3.67170445 C0,3.30073233 0.307804234,3 0.6875,3 L21.3125,3 C21.6921958,3 22,3.30073233 22,3.67170445 L22,8.2527288 C22,8.62370092 21.6921958,8.92443325 21.3125,8.92443325 C20.5127331,8.86151802 19.7445732,9.24278647 19.3249325,9.91094244 C18.9052918,10.5790984 18.9052918,11.4209016 19.3249325,12.0890576 C19.7445732,12.7572135 20.5127331,13.138482 21.3125,13.0755668 C21.6921958,13.0755668 22,13.3762991 22,13.7472712 L22,18.3282955 C22,18.6992677 21.6921958,19 21.3125,19 Z" id="路径" fill="#464646"></path>
                        <path d="M8.25,14.4189757 C7.97494832,14.4152006 7.72867673,14.2516042 7.62394052,14.0030888 C7.51920432,13.7545734 7.57616769,13.4689843 7.76875,13.2770781 L13.32375,7.78253568 C13.4528395,7.65537353 13.6285617,7.58384663 13.811875,7.58384663 C13.9951883,7.58384663 14.1709105,7.65537353 14.3,7.78253568 C14.5620357,8.0437236 14.5620357,8.461734 14.3,8.72292191 L8.67625,14.2174643 C8.56237878,14.3308902 8.41169974,14.4021243 8.25,14.4189757 L8.25,14.4189757 Z" id="路径" fill="#FFFFFF"></path>
                        <path d="M8.6625,9.8379513 C7.50822487,9.8379513 6.5725,8.92372503 6.5725,7.79596977 C6.5725,6.66821452 7.50822487,5.75398825 8.6625,5.75398825 C9.81677513,5.75398825 10.7525,6.66821452 10.7525,7.79596977 C10.7450004,8.92067598 9.81365437,9.83062399 8.6625,9.8379513 L8.6625,9.8379513 Z" id="路径" fill="#FFFFFF"></path>
                        <path d="M8.6625,7.1511335 C8.2676164,7.1511335 7.9475,7.46389512 7.9475,7.84970613 C7.9475,8.23551714 8.2676164,8.54827876 8.6625,8.54827876 C9.0573836,8.54827876 9.3775,8.23551714 9.3775,7.84970613 C9.39285136,7.65531248 9.3243544,7.46349597 9.18856611,7.32062219 C9.05277782,7.17774841 8.86205541,7.09681938 8.6625,7.09739407 L8.6625,7.1511335 Z" id="路径" fill="#000000"></path>
                        <path d="M13.3375,16.2460118 C12.1850452,16.2386039 11.2562236,15.3211234 11.2612496,14.1951331 C11.2663165,13.0691427 12.2033262,12.1596447 13.3558032,12.1620928 C14.5082802,12.1645508 15.44125,13.0780291 15.44125,14.2040302 C15.44125,14.7479331 15.2191798,15.2693654 14.8242498,15.6526997 C14.4293199,16.0360341 13.894181,16.2495901 13.3375,16.2460118 L13.3375,16.2460118 Z" id="路径" fill="#FFFFFF"></path>
                        <path d="M13.3375,13.559194 C12.9444951,13.5665795 12.6312928,13.8825355 12.6363082,14.2665507 C12.6413236,14.6505659 12.9626756,14.9586108 13.3557455,14.9562103 C13.7488153,14.9537816 14.0661773,14.6418131 14.06625,14.2577666 C14.0818369,14.0610133 14.0115216,13.8669977 13.8726819,13.7236696 C13.7338423,13.5803416 13.5394326,13.5010741 13.3375,13.5054576 L13.3375,13.559194 Z" id="路径" fill="#000000"></path>
                    </g>
                    <g id="线下券" transform="translate(422.355464, 292.294564)" fill-rule="nonzero">
                        <rect id="矩形" fill="#000000" opacity="0" x="0" y="0" width="16" height="16"></rect>
                        <path d="M15.7963173,8.24230683 L7.83700383,0.281993391 C7.69800708,0.107497484 7.5010117,5.68434189e-14 7.27701695,5.68434189e-14 L0.692671281,5.68434189e-14 C0.30968025,5.68434189e-14 0.000187515625,0.30949275 0.000187515625,0.692983766 L0.000187515625,7.27732944 C0.000187515625,7.50182417 0.108184984,7.69931955 0.273681109,7.82581658 C0.277181031,7.8293165 8.24299433,15.7971298 8.24299433,15.7971298 C8.512988,16.0676234 8.95197772,16.0676234 9.22247137,15.7971298 L15.7968173,9.22278384 C16.066811,8.95179019 16.066811,8.51280048 15.7963173,8.24280681 L15.7963173,8.24230683 Z M3.23178625,4.3864675 C2.40370257,4.3864675 1.73214691,3.71475033 1.73214691,2.8864675 C1.73286823,2.05746318 2.40370257,1.3864675 3.23178625,1.3864675 C4.05986992,1.3864675 4.73214691,2.05818467 4.73214691,2.8864675 C4.73214691,3.71402883 4.06059124,4.3864675 3.23178625,4.3864675 Z" id="形状" fill="#FED095"></path>
                    </g>
                </g>
                <rect id="矩形" x="0" y="0" width="532" height="420"></rect>
            </g>
        </g>
    </g>
</svg>