<?xml version="1.0" encoding="UTF-8"?>
<svg width="214px" height="33px" viewBox="0 0 214 33" version="1.1" xmlns="http://www.w3.org/2000/svg" xmlns:xlink="http://www.w3.org/1999/xlink">
    <!-- Generator: Sketch 61 (89581) - https://sketch.com -->
    <title>logo-四字</title>
    <desc>Created with Sketch.</desc>
    <defs>
        <linearGradient x1="50%" y1="0%" x2="50%" y2="113.266603%" id="linearGradient-1">
            <stop stop-color="#2980FF" offset="0%"></stop>
            <stop stop-color="#277BF6" offset="24.2248701%"></stop>
            <stop stop-color="#0037A5" offset="100%"></stop>
        </linearGradient>
        <path d="M59.5283436,16.4429518 C63.7628323,21.383438 64.4783907,30.256961 63.2463225,32.6226208 C62.0142543,34.9882805 57.5888695,38.2586953 45.1243094,40.4613 C41.2207669,41.1510926 36.7083929,40.9714815 32.1976625,40.0752805 C30.7008433,41.1786993 29.1039586,42.5533971 27.9472253,43.6120024 C26.2171772,45.1952871 25.3567511,46.2264733 23.9382827,48.314878 C22.6538968,46.3606644 23.4089663,43.0749502 26.2034911,38.4577355 C19.6494355,36.2070291 13.7076908,32.5096366 10.4143926,27.8748571 C8.81916319,27.6384472 6.58725506,27.1122193 4.37221397,25.5060901 C0.691797032,22.837415 0.0865016408,19.7592715 0.116598933,19.8116505 C2.21257546,23.4593273 5.19997311,23.0409182 6.90769945,22.5269131 C7.64606025,22.3046754 8.32621512,21.7956049 8.76164297,21.3629826 C10.4577586,19.6777955 10.4577586,17.6917946 10.4988173,17.3416406 C10.539876,16.9914866 10.283851,21.0999617 10.3941098,22.8260729 C10.5130738,24.6884633 10.7677189,26.6872031 11.1582054,27.5645981 C13.2377361,29.7061028 15.3972328,30.3991395 17.6367702,29.6435183 C21.9268024,28.196059 55.2938548,11.5024657 59.5283436,16.4429518 Z M46.4917127,26.4954545 C45.2330527,26.4954545 44.2127072,27.5180769 44.2127072,28.7795455 C44.2127072,30.041014 45.2330527,31.0636364 46.4917127,31.0636364 C47.7503727,31.0636364 48.7707182,30.041014 48.7707182,28.7795455 C48.7707182,27.5180769 47.7503727,26.4954545 46.4917127,26.4954545 Z M47.4033149,27.4090909 C48.1585109,27.4090909 48.7707182,28.0226643 48.7707182,28.7795455 C48.7707182,29.5364266 48.1585109,30.15 47.4033149,30.15 C46.6481189,30.15 46.0359116,29.5364266 46.0359116,28.7795455 C46.0359116,28.0226643 46.6481189,27.4090909 47.4033149,27.4090909 Z" id="path-2"></path>
        <path d="M31.8696873,40.3216464 L32.1976625,40.0752805 C31.2132711,40.8009499 30.1856003,41.6439505 29.2683111,42.4372083 C30.0181099,41.7009281 30.8848256,40.9960028 31.8696873,40.3216464 Z M63.2463225,32.6226208 C62.0142543,34.9882805 57.5888695,38.2586953 45.1243094,40.4613 C41.2294261,41.1495624 36.7284093,40.9722741 32.2276807,40.081234 C38.3623857,36.0415902 48.8321271,33.1226947 63.6359968,31.3252038 C63.5448028,31.860871 63.4134897,32.3016478 63.2463225,32.6226208 Z" id="path-4"></path>
    </defs>
    <g id="logo" stroke="none" stroke-width="1" fill="none" fill-rule="evenodd">
        <g transform="translate(-1203.000000, -315.000000)" id="logo-四字">
            <g transform="translate(1202.000000, 298.000000)">
                <g id="编组">
                    <g id="logo-word" transform="translate(80.220994, 17.663636)">
                        <g id="知">
                            <path d="M5.88007744,0.350524192 C6.18029993,0.443106473 6.50938504,0.547259977 6.86734263,0.662987828 C7.22530022,0.778715679 7.47355741,0.871296572 7.61212164,0.940733283 C7.95853221,1.10275227 8.17214886,1.29370037 8.25297799,1.51358328 C8.33380712,1.7334662 8.30494001,2.05171302 8.16637578,2.46833328 C7.88924732,3.25528267 7.55438879,4.10008331 7.16179014,5.00276056 L14.895411,4.97763376 C15.9013071,4.97436557 16.7193963,5.78715603 16.7226645,6.79305206 L16.7226741,6.79896965 L11.2530609,6.79896965 L11.3186962,10.3840787 C11.3186962,11.1015914 11.3071494,11.7843755 11.2840553,12.4324515 C11.2609613,13.0805274 11.2992489,13.5062757 11.2530609,14.1080606 L15.3512025,14.1080606 C16.3099186,14.1080606 17.0961877,14.8463939 17.1724179,15.7854685 L17.1784752,15.9353333 L11.0415691,15.9042696 C10.949193,16.5754912 10.8510448,17.2235574 10.7471216,17.8484878 C10.6431985,18.4734182 10.5104097,19.0867666 10.3487515,19.6885515 C10.3487515,19.7105212 10.3434234,19.7445528 10.3339265,19.7877624 L9.99865349,19.5898787 C13.6788952,21.7826521 15.7326046,23.4574512 16.1597817,24.6142759 L16.1960438,24.7246097 L16.1960438,24.7246097 C16.4285617,25.5352249 15.9599212,26.3808513 15.149306,26.6133692 C14.44847,26.8143979 13.7032856,26.4919026 13.3701109,25.8433824 C12.900715,24.9297136 12.4988996,24.2156666 12.1646631,23.7012424 C11.7378238,23.0442931 11.0160801,22.0893872 9.99943197,20.8365245 C9.93997584,20.999282 9.89841998,21.1119969 9.89841998,21.1119969 C9.20559883,23.102516 8.17215613,24.8962708 6.79806086,26.4933151 C5.42396559,28.0903594 3.61688422,29.6410894 1.37676252,31.1455515 C1.30748041,31.1918426 1.21510564,31.1860563 1.09963545,31.1281924 C0.984165257,31.0703284 0.880243644,30.9893202 0.787867492,30.8851651 C0.69549134,30.78101 0.63775711,30.6652839 0.614663072,30.5379833 C0.591569034,30.4106826 0.626209572,30.2891702 0.718585724,30.1734424 C1.85019359,28.900436 2.8085818,27.6795255 3.59377909,26.5106742 C4.37897639,25.3418229 5.03137318,24.190348 5.55098904,23.0562151 C6.0706049,21.9220822 6.48051792,20.7706073 6.78074042,19.601756 C7.08096292,18.4329047 7.30035299,17.2004216 7.43891722,15.9042696 L1.22543655,15.9353333 L1.22543655,14.1080606 L7.60665202,14.1080606 C7.67593414,12.9044909 7.6814034,11.8191037 7.6814034,10.4535151 L7.60665202,6.79896965 L6.23924871,6.79896965 C5.61570968,8.0025393 5.08911434,8.9374825 4.3385581,10.0021787 C3.58800186,11.066875 2.8432303,11.9116756 2.10422108,12.536606 C1.98875089,12.6291883 1.87328243,12.6581198 1.75781224,12.6234015 C1.64234205,12.5886831 1.53264702,12.5250337 1.42872385,12.4324515 C1.32480067,12.3398692 1.24974618,12.2299294 1.2035581,12.1026287 C1.15737002,11.9753281 1.15737002,11.8538157 1.2035581,11.7380878 C2.15041366,9.77071435 2.87786495,7.94802804 3.38593379,6.26997419 C3.89400263,4.59192035 4.30968908,2.88496014 4.63300561,1.14904237 C4.7484758,0.454675265 5.16416225,0.1885052 5.88007744,0.350524192 Z M29.7790055,3.9009151 C30.2824695,3.9009151 30.6906077,4.30996403 30.6906077,4.81455146 L30.6906077,25.8281878 C30.6906077,26.3327753 30.2824695,26.7418242 29.7790055,26.7418242 L18.839779,26.7418242 C18.336315,26.7418242 17.9281768,26.3327753 17.9281768,25.8281878 L17.9281768,4.81455146 C17.9281768,4.30996403 18.336315,3.9009151 18.839779,3.9009151 L29.7790055,3.9009151 Z M27.0802984,5.24578783 L21.3645526,5.24578783 L21.3645526,25.0698696 L27.0802984,25.0698696 L27.0802984,5.24578783 Z" id="形状结合" fill="#2980FF" fill-rule="nonzero"></path>
                            <rect id="矩形" x="0" y="0" width="31.6022099" height="31.6727273"></rect>
                        </g>
                        <g id="蓝" transform="translate(36.464088, 0.000000)">
                            <path d="M26.2845304,19.6480545 C26.7879944,19.6480545 27.1961326,20.0571035 27.1961326,20.5616909 L27.1961326,27.8707818 L29.4751381,27.8707818 C30.4591814,27.8707818 31.2611406,28.652116 31.297085,29.6295506 L31.2983425,29.6980545 L0.303867403,29.6980545 L0.303867403,27.8707818 L4.40607735,27.8707818 L4.40607735,20.5616909 C4.40607735,20.0571035 4.81421556,19.6480545 5.31767956,19.6480545 L26.2845304,19.6480545 Z M10.8820994,21.1701727 L7.72977901,21.1701727 L7.72977901,27.9749364 L10.8820994,27.9749364 L10.8820994,21.1701727 Z M17.2213812,21.1701727 L14.0690608,21.1701727 L14.0690608,27.9749364 L17.2213812,27.9749364 L17.2213812,21.1701727 Z M23.560663,21.1701727 L20.4429834,21.1701727 L20.4429834,27.9749364 L23.560663,27.9749364 L23.560663,21.1701727 Z M21.9989602,12.5078705 C24.7568519,14.2200176 26.3048075,15.5359753 26.6428268,16.4557434 L26.6754054,16.5563094 L26.6754054,16.5563094 C26.8573694,17.2085965 26.4760972,17.8848906 25.8238101,18.0668546 C25.2585905,18.2245299 24.6608866,17.959646 24.3980501,17.4350016 C24.031683,16.7038065 23.7174216,16.1307255 23.4552238,15.7157797 C23.0796006,15.1213304 22.4180664,14.2298528 21.4706213,13.0413471 C21.3570464,12.898877 21.3687925,12.6937843 21.4978897,12.5652118 C21.6314112,12.4322331 21.8388411,12.4085067 21.9989602,12.5078705 Z M13.0662983,7.77078182 L13.0662983,17.8207818 L10.3314917,17.8207818 L10.3314917,9.59805455 L10.3314917,9.59805455 C10.3314917,8.46995821 11.2739292,7.77078182 12.1546961,7.77078182 L13.0662983,7.77078182 L13.0662983,7.77078182 Z M18.8841436,7.2829 L20.581547,7.73423636 C20.8355814,7.7805275 21.0203309,7.91361254 21.1358011,8.13349545 C21.2512713,8.35337837 21.274365,8.56747169 21.2050829,8.77578182 C21.1127067,8.98409195 21.0318788,9.19239896 20.9625967,9.40070909 C20.8933146,9.60901922 20.8124866,9.80575362 20.7201105,9.99091818 L28.2227647,9.99091818 C29.0376734,9.99091818 29.7068593,10.6148314 29.7786982,11.4110336 L29.7850829,11.5532364 L19.9926519,11.5532364 C19.3229248,12.8725339 18.5781533,14.0355813 17.7583149,15.0424136 C16.9384766,16.0492459 16.0551429,16.9229781 15.1082873,17.6636364 C15.0159111,17.7330728 14.9062161,17.750432 14.7791989,17.7157136 C14.6521817,17.6809953 14.5367132,17.6173459 14.4327901,17.5247636 C14.3288669,17.4321814 14.2538124,17.3222415 14.2076243,17.1949409 C14.1614362,17.0676403 14.1729831,16.9461279 14.2422652,16.8304 C15.327685,14.9324632 16.1301908,13.2775798 16.6498066,11.8657 C17.1694225,10.4538202 17.5677887,9.16926033 17.8449171,8.01198182 C17.9834814,7.41019699 18.3298867,7.16717215 18.8841436,7.2829 Z M7.59668508,7.77078182 L7.59668508,17.2835637 L4.86187845,17.2835637 L4.86187845,9.59805455 L4.86187845,9.59805455 C4.86187845,8.62981112 5.85012714,7.77078182 6.68508287,7.77078182 L7.59668508,7.77078182 L7.59668508,7.77078182 Z M12.2677348,0.304545455 L12.2677348,4.09979091 L18.9187845,4.09979091 L18.9187845,2.16653636 C18.9187845,1.1573615 19.735061,0.339263636 20.741989,0.339263636 L22.348232,0.339263636 L22.348232,4.09979091 L29.3930939,4.09979091 C30.4000219,4.09979091 31.2162983,4.91788878 31.2162983,5.92706364 L31.2162983,5.93770643 L0.351270718,5.93770643 L0.351270718,4.09979091 L8.80364641,4.09979091 L8.80364641,2.13181818 C8.80364641,1.12264332 9.61992283,0.304545455 10.6268508,0.304545455 L12.2677348,0.304545455 Z" id="形状结合" fill="#2980FF" fill-rule="nonzero"></path>
                            <rect id="矩形备份-2" x="0" y="0" width="31.6022099" height="31.6727273"></rect>
                        </g>
                        <g id="平" transform="translate(70.801105, 0.000000)">
                            <g id="编组-8" transform="translate(0.911602, 3.350000)" fill="#2980FF" fill-rule="nonzero">
                                <path d="M26.4364641,0 C27.4433921,0 28.2596685,0.818097866 28.2596685,1.82727273 L16.554,1.827 L16.554,14.922 L28.2596685,14.9227273 C29.2665965,14.9227273 30.0828729,15.7408251 30.0828729,16.75 L16.554,16.75 L16.5549823,27.4090909 L16.5549823,27.4090909 L15.6627976,27.4090909 L12.7879803,27.3798164 L12.7879803,27.3798164 L12.787,16.75 L0,16.75 L0,14.9227273 L12.787,14.922 L12.787,1.827 L1.51933702,1.82727273 L1.51933702,0 L26.4364641,0 Z M22.2506283,4.30712218 C22.4818243,4.22739819 22.7482024,4.25729468 23.0497624,4.39681167 L23.0497624,4.39681167 L24.7686545,5.32360307 C25.0702145,5.54284405 25.2209945,5.76208502 25.2209945,5.981326 C25.2209945,6.20056698 25.1405785,6.44970445 24.9797465,6.72873842 C24.7787065,7.08749638 24.4821724,7.55587483 24.0901444,8.13387377 C23.6981164,8.71187271 23.2508024,9.3147854 22.7482024,9.94261183 C22.2456023,10.5704383 21.7027943,11.1833165 21.1197783,11.7812464 C20.5367623,12.3791763 19.9637982,12.8874168 19.4008862,13.3059677 C19.2151473,13.4416337 18.7768344,13.4416337 18.6168302,13.2323582 C18.4568259,13.0230827 18.5766222,12.6582103 18.6168302,12.5585553 C18.9787022,11.8410394 19.3104182,11.1683682 19.6119782,10.5405418 C19.9135382,9.91271534 20.1899682,9.2948544 20.4412683,8.68695897 C20.6925683,8.07906353 20.9237643,7.47116809 21.1348563,6.86327266 C21.3459483,6.25537722 21.5520143,5.61260254 21.7530543,4.93494861 C21.8535743,4.59612165 22.0194323,4.38684617 22.2506283,4.30712218 Z M4.12229624,4.40911433 C4.37717325,4.18283688 4.71430576,4.27285626 4.79426718,4.33342908 C5.51391993,4.83820258 6.13362091,5.3025942 6.65337012,5.72660394 C7.17311933,6.15061368 7.62290229,6.54433702 8.00271902,6.90777394 C8.38253575,7.27121086 8.70238142,7.61950457 8.96225602,7.95265508 C9.22213063,8.28580559 9.4520197,8.61390837 9.65192324,8.93696341 C9.89180749,9.28020939 10.0167472,9.62345537 10.0267424,9.96670135 C10.0367376,10.3099473 9.96177373,10.6733843 9.8018509,11.0570121 C9.68190877,11.3396853 9.55696906,11.5769288 9.42703176,11.7687428 C9.29709446,11.9605567 9.11218368,12.1776093 8.87229943,12.4199006 C8.61242483,12.7025737 8.30757192,12.8237194 7.95774073,12.7833375 C7.60790953,12.7429556 7.35303251,12.4703779 7.19310968,11.9656044 C6.7933026,10.754148 6.33352445,9.59316896 5.81377524,8.48266726 C5.29402603,7.37216556 4.69431541,6.24147291 4.01464337,5.09058933 C3.95467231,4.98963463 3.86741922,4.63539179 4.12229624,4.40911433 Z" id="形状结合"></path>
                            </g>
                            <rect id="矩形备份-2" x="0" y="0" width="31.6022099" height="31.6727273"></rect>
                        </g>
                        <g id="台" transform="translate(103.922652, 0.000000)">
                            <rect id="矩形备份-3" x="0" y="0" width="31.6022099" height="31.6727273"></rect>
                            <g id="编组-7" transform="translate(1.823204, 1.522727)" fill="#2980FF">
                                <path d="M24.3293943,10.6398346 C23.4456224,10.0609913 22.6160698,10.0609913 22.0648228,10.1876415 L4.51729811,10.9577686 C5.40107007,10.4020791 6.8837138,9.48724118 7.77911433,8.85051359 C8.67451487,8.21378599 9.54084395,7.54811623 10.3781016,6.85350431 C11.2153592,6.15889239 12.0177311,5.44691516 12.7852173,4.71757264 C13.5527035,3.98823013 14.2504182,3.26467604 14.8783614,2.54691038 C15.1341901,2.29221935 15.2388473,2.04910517 15.192333,1.81756787 C15.1458187,1.58603056 14.9946472,1.38922385 14.7388185,1.22714773 C14.6225327,1.15768654 14.4597326,1.07086005 14.2504182,0.96666826 C14.0411038,0.862476471 13.8259751,0.758284683 13.6050321,0.654092894 C13.3840891,0.549901106 13.1689604,0.45149775 12.959646,0.358882827 C12.7503316,0.266267904 12.5875315,0.196806712 12.4712457,0.15049925 C11.7270167,-0.15049925 11.1804735,0 10.8316161,0.601997 C10.366473,1.38922385 9.7850441,2.22854659 9.0873294,3.11996522 C8.3896147,4.01138386 7.63375711,4.90859092 6.81975662,5.81158642 C6.00575614,6.71458192 5.15686992,7.58863526 4.27309797,8.43374643 C3.38932601,9.27885761 1.93575372,10.3330408 0.958953144,10.8528488 C-0.017847436,11.3726567 -0.0325231029,11.7042109 0.0139912104,12.0283631 L0.435667119,13.6954318 C0.551952902,13.9964303 0.70893871,14.1816601 0.906624541,14.2511213 C1.10431037,14.3205825 1.43572486,14.3321593 1.90086799,14.2858519 C2.55206837,14.2163907 3.42421175,14.1237758 4.51729811,14.0080071 C5.61038448,13.8922385 6.81975662,13.7533161 8.14541455,13.59124 C9.47107248,13.4291638 10.8548733,13.2612993 12.296817,13.0876463 C13.7387607,12.9139933 15.1400044,12.7345519 16.5005481,12.5493221 C17.8610917,12.3640922 19.1344211,12.1904393 20.3205361,12.0283631 C21.5066511,11.866287 22.4950802,11.7157878 23.2858235,11.5768654 C23.797481,12.1788624 25.2131663,11.2186779 24.3293943,10.6398346 Z" id="路径" fill-rule="nonzero"></path>
                                <path d="M24.3449092,17.6636364 C24.8287578,17.6636364 25.2209945,18.0532491 25.2209945,18.5338608 L25.2209945,18.5338608 L25.2209945,28.9765525 C25.2202559,29.4571636 24.8274218,29.846182 24.3435738,29.8454525 L24.3435738,29.8454525 L3.60955645,29.8140558 C3.12622992,29.813324 2.73480663,29.4239261 2.73480663,28.9438324 L2.73480663,28.9438324 L2.73480663,18.5338608 C2.73480663,18.0532491 3.12704335,17.6636364 3.61089187,17.6636364 L3.61089187,17.6636364 Z M21.1609883,19.2254079 L6.79481277,19.2254079 L6.79481277,28.283683 L21.1609883,28.283683 L21.1609883,19.2254079 Z" id="形状结合" fill-rule="nonzero"></path>
                                <path d="M19.6335927,4.76639693 C24.8551086,8.4784255 27.6544168,10.9399554 28.0315171,12.1509865 C28.0315171,12.1509865 28.0315171,12.1509865 28.0315171,12.1509865 C28.3842542,13.2837768 27.7518961,14.4880348 26.6191058,14.8407719 C25.6102111,15.1549294 24.5226634,14.688736 24.0545167,13.7414229 C23.3209916,12.2572314 22.6999652,11.1137028 22.1913877,10.3108616 C21.5370814,9.27797273 20.3847529,7.72899141 18.7344021,5.66391762 C18.5366079,5.41645516 18.5570443,5.0597248 18.781789,4.83645364 C19.0108337,4.6089106 19.3704455,4.57933835 19.6335927,4.76639693 Z" id="路径-7备份-5" transform="translate(23.248465, 9.999678) rotate(-1.000000) translate(-23.248465, -9.999678) "></path>
                            </g>
                        </g>
                    </g>
                    <g id="logo-shape">
                        <g transform="translate(1.519337, 1.522727)">
                            <mask id="mask-3" fill="white">
                                <use xlink:href="#path-2"></use>
                            </mask>
                            <use id="形状结合" fill="url(#linearGradient-1)" xlink:href="#path-2"></use>
                            <mask id="mask-5" fill="white">
                                <use xlink:href="#path-4"></use>
                            </mask>
                            <use id="形状结合" fill="#A7CBFF" xlink:href="#path-4"></use>
                            <rect id="矩形" x="0" y="0" width="63.8121547" height="63.9545455"></rect>
                        </g>
                        <rect id="矩形" x="0" y="0" width="66.8508287" height="67"></rect>
                    </g>
                </g>
            </g>
        </g>
    </g>
</svg>